
<svg aria-hidden="true" style="position: absolute; width: 0; height: 0; overflow: hidden;" version="1.1" xmlns="http://www.w3.org/2000/svg" xmlns:xlink="http://www.w3.org/1999/xlink">
<defs>
<symbol id="truck" viewBox="0 0 32 32">
<path fill="#ffbc57" style="fill: var(--color1, #ffbc57)" d="M26.469 16.321c3.055 0 5.531-2.476 5.531-5.531s-2.476-5.531-5.531-5.531c-3.055 0-5.531 2.476-5.531 5.531s2.476 5.531 5.531 5.531z"></path>
<path fill="#ffbc57" style="fill: var(--color1, #ffbc57)" d="M13.709 9.881c2.618 0 4.741-2.123 4.741-4.741s-2.123-4.741-4.741-4.741c-2.618 0-4.741 2.123-4.741 4.741s2.123 4.741 4.741 4.741z"></path>
<path fill="#ffbc57" style="fill: var(--color1, #ffbc57)" d="M7.901 31.412c4.364 0 7.901-3.538 7.901-7.901s-3.538-7.901-7.901-7.901c-4.364 0-7.901 3.538-7.901 7.901s3.538 7.901 7.901 7.901z"></path>
<path fill="#fff" style="fill: var(--color2, #fff)" d="M27.615 16.652l-2.054-0.869h-5.531c-0.869 0-1.58-0.711-1.58-1.58v-5.926h-2.765v15.802h10.983c0.316 0 0.632-0.119 0.83-0.356l0.474-0.474c0.237-0.237 0.356-0.514 0.356-0.83v-4.701c0-0.474-0.277-0.909-0.711-1.067z"></path>
<path fill="#fff" style="fill: var(--color2, #fff)" d="M25.244 16.652l-2.054-0.869h-3.161c-0.869 0-1.58-0.711-1.58-1.58v-5.926h-2.765v15.802h8.612c0.316 0 0.632-0.119 0.83-0.356l0.474-0.474c0.237-0.237 0.356-0.514 0.356-0.83v-4.701c0-0.474-0.277-0.909-0.711-1.067z"></path>
<path fill="#fff" style="fill: var(--color2, #fff)" d="M24.375 18.943l1.185 2.37h2.765v-2.37h-3.951z"></path>
<path fill="#fff" style="fill: var(--color2, #fff)" d="M24.375 18.943l0.79 1.58h1.58c0.237 0 0.395-0.158 0.395-0.395v-1.185h-2.765z"></path>
<path fill="#2b2929" style="fill: var(--color3, #2b2929)" d="M28.326 21.59h-2.765c-0.119 0-0.198-0.079-0.277-0.158l-1.185-2.37c-0.039-0.079-0.039-0.198 0-0.277s0.158-0.158 0.237-0.158h3.951c0.158 0 0.316 0.119 0.316 0.316v2.37c0.040 0.158-0.079 0.277-0.277 0.277zM25.758 20.998h2.291v-1.778h-3.161l0.869 1.778z"></path>
<path fill="#fff" style="fill: var(--color2, #fff)" d="M20.030 15.783h5.531l-3.042-6.202c-0.395-0.79-1.225-1.304-2.133-1.304h-1.936v5.926c0 0.869 0.711 1.58 1.58 1.58z"></path>
<path fill="#fff" style="fill: var(--color2, #fff)" d="M22.519 9.58c-0.395-0.79-1.225-1.304-2.133-1.304h-1.936c0.869 0 1.699 0.514 2.094 1.304l3.042 6.202h1.975l-3.042-6.202z"></path>
<path fill="#2b2929" style="fill: var(--color3, #2b2929)" d="M25.561 16.059h-5.531c-1.027 0-1.896-0.83-1.896-1.857v-5.926c0-0.158 0.119-0.316 0.316-0.316h1.936c1.027 0 1.936 0.553 2.41 1.501l3.042 6.202c0.040 0.079 0.040 0.198 0 0.277-0.079 0.079-0.158 0.119-0.277 0.119zM18.765 8.553v5.649c0 0.711 0.593 1.264 1.304 1.264h5.057l-2.844-5.768c-0.356-0.711-1.067-1.146-1.857-1.146h-1.659z"></path>
<path fill="#fff" style="fill: var(--color2, #fff)" d="M3.832 5.116c-0.435 0-0.79 0.356-0.79 0.79v17.383c0 0.435 0.356 0.79 0.79 0.79h11.852v-18.173c0-0.435-0.356-0.79-0.79-0.79h-11.062z"></path>
<path fill="#fff" style="fill: var(--color2, #fff)" d="M3.832 5.116c-0.435 0-0.79 0.356-0.79 0.79v16.198h9.482c0.435 0 0.79-0.356 0.79-0.79v-16.198h-9.481z"></path>
<path fill="#2b2929" style="fill: var(--color3, #2b2929)" d="M15.684 24.356h-11.852c-0.593 0-1.106-0.474-1.106-1.106v-17.383c0.039-0.593 0.514-1.067 1.106-1.067h11.062c0.593 0 1.106 0.474 1.106 1.106v18.173c0 0.158-0.119 0.277-0.316 0.277zM3.832 5.393c-0.277 0-0.514 0.237-0.514 0.514v17.383c0 0.277 0.237 0.514 0.514 0.514h11.575v-17.896c0-0.277-0.237-0.514-0.514-0.514h-11.062z"></path>
<path fill="#2b2929" style="fill: var(--color3, #2b2929)" d="M26.667 24.355h-10.983c-0.158 0-0.316-0.119-0.316-0.316v-15.802c0-0.158 0.119-0.316 0.316-0.316h2.765c0.158 0 0.316 0.119 0.316 0.316v5.926c0 0.711 0.593 1.264 1.304 1.264h5.531c0.040 0 0.079 0 0.119 0.039l2.054 0.869c0.553 0.237 0.909 0.751 0.909 1.343v4.662c0 0.395-0.158 0.751-0.435 1.067l-0.474 0.474c-0.356 0.316-0.711 0.474-1.106 0.474zM16 23.763h10.667c0.237 0 0.474-0.079 0.632-0.277l0.474-0.474c0.158-0.158 0.277-0.395 0.277-0.632v-4.662c0-0.356-0.198-0.672-0.553-0.83l-1.975-0.869h-5.491c-1.027 0-1.896-0.83-1.896-1.857v-5.61h-2.173v15.21h0.039z"></path>
<path fill="#fff" style="fill: var(--color2, #fff)" d="M9.363 26.449c1.309 0 2.37-1.061 2.37-2.37s-1.061-2.37-2.37-2.37c-1.309 0-2.37 1.061-2.37 2.37s1.061 2.37 2.37 2.37z"></path>
<path fill="#fff" style="fill: var(--color2, #fff)" d="M10.627 22.025c0.237 0.356 0.356 0.79 0.356 1.225 0 1.304-1.067 2.37-2.37 2.37-0.435 0-0.869-0.119-1.225-0.356 0.435 0.672 1.146 1.146 2.015 1.146 1.304 0 2.37-1.067 2.37-2.37-0.040-0.83-0.474-1.58-1.146-2.015z"></path>
<path fill="#2b2929" style="fill: var(--color3, #2b2929)" d="M9.363 26.726c-1.462 0-2.686-1.185-2.686-2.686 0-1.462 1.185-2.686 2.686-2.686s2.686 1.185 2.686 2.686-1.185 2.686-2.686 2.686zM9.363 21.985c-1.146 0-2.094 0.948-2.094 2.094s0.948 2.094 2.094 2.094c1.146 0 2.094-0.948 2.094-2.094s-0.948-2.094-2.094-2.094z"></path>
<path fill="#fff" style="fill: var(--color2, #fff)" d="M9.363 24.869c0.436 0 0.79-0.354 0.79-0.79s-0.354-0.79-0.79-0.79c-0.436 0-0.79 0.354-0.79 0.79s0.354 0.79 0.79 0.79z"></path>
<path fill="#2b2929" style="fill: var(--color3, #2b2929)" d="M9.363 25.146c-0.593 0-1.106-0.474-1.106-1.106 0-0.593 0.474-1.106 1.106-1.106s1.106 0.474 1.106 1.106c0 0.632-0.474 1.106-1.106 1.106zM9.363 23.565c-0.277 0-0.514 0.237-0.514 0.514s0.237 0.514 0.514 0.514c0.277 0 0.514-0.237 0.514-0.514s-0.237-0.514-0.514-0.514z"></path>
<path fill="#fff" style="fill: var(--color2, #fff)" d="M22.005 26.449c1.309 0 2.37-1.061 2.37-2.37s-1.061-2.37-2.37-2.37c-1.309 0-2.37 1.061-2.37 2.37s1.061 2.37 2.37 2.37z"></path>
<path fill="#fff" style="fill: var(--color2, #fff)" d="M23.269 22.025c0.237 0.356 0.356 0.79 0.356 1.225 0 1.304-1.067 2.37-2.37 2.37-0.435 0-0.869-0.119-1.225-0.356 0.435 0.672 1.146 1.146 2.015 1.146 1.304 0 2.37-1.067 2.37-2.37-0.040-0.83-0.474-1.58-1.146-2.015z"></path>
<path fill="#2b2929" style="fill: var(--color3, #2b2929)" d="M22.005 26.726c-1.462 0-2.686-1.185-2.686-2.686 0-1.462 1.185-2.686 2.686-2.686 1.462 0 2.686 1.185 2.686 2.686s-1.185 2.686-2.686 2.686zM22.005 21.985c-1.146 0-2.094 0.948-2.094 2.094s0.948 2.094 2.094 2.094c1.146 0 2.094-0.948 2.094-2.094s-0.948-2.094-2.094-2.094z"></path>
<path fill="#fff" style="fill: var(--color2, #fff)" d="M22.005 24.869c0.436 0 0.79-0.354 0.79-0.79s-0.354-0.79-0.79-0.79c-0.436 0-0.79 0.354-0.79 0.79s0.354 0.79 0.79 0.79z"></path>
<path fill="#2b2929" style="fill: var(--color3, #2b2929)" d="M22.005 25.146c-0.593 0-1.106-0.474-1.106-1.106 0-0.593 0.474-1.106 1.106-1.106 0.593 0 1.106 0.474 1.106 1.106s-0.474 1.106-1.106 1.106zM22.005 23.565c-0.277 0-0.514 0.237-0.514 0.514s0.237 0.514 0.514 0.514c0.277 0 0.514-0.237 0.514-0.514s-0.237-0.514-0.514-0.514z"></path>
<path fill="#2b2929" style="fill: var(--color3, #2b2929)" d="M20.425 17.639h-1.58c-0.158 0-0.316-0.119-0.316-0.316 0-0.158 0.119-0.316 0.316-0.316h1.58c0.158 0 0.316 0.119 0.316 0.316s-0.119 0.316-0.316 0.316z"></path>
<path fill="#ffbc57" style="fill: var(--color1, #ffbc57)" d="M13.709 15.269h-8.691c-0.158 0-0.316-0.119-0.316-0.316 0-0.158 0.118-0.316 0.316-0.316h8.691c0.158 0 0.316 0.119 0.316 0.316s-0.119 0.316-0.316 0.316z"></path>
<path fill="#ffbc57" style="fill: var(--color1, #ffbc57)" d="M13.709 17.639h-8.691c-0.158 0-0.316-0.119-0.316-0.316 0-0.158 0.118-0.316 0.316-0.316h8.691c0.158 0 0.316 0.119 0.316 0.316s-0.119 0.316-0.316 0.316z"></path>
<path fill="#ffbc57" style="fill: var(--color1, #ffbc57)" d="M13.709 20.010h-8.691c-0.158 0-0.316-0.119-0.316-0.316 0-0.158 0.118-0.316 0.316-0.316h8.691c0.158 0 0.316 0.119 0.316 0.316s-0.119 0.316-0.316 0.316z"></path>
<path fill="#ffbc57" style="fill: var(--color1, #ffbc57)" d="M13.709 12.899h-8.691c-0.158 0-0.316-0.119-0.316-0.316 0-0.158 0.118-0.316 0.316-0.316h8.691c0.158 0 0.316 0.119 0.316 0.316s-0.119 0.316-0.316 0.316z"></path>
<path fill="#2b2929" style="fill: var(--color3, #2b2929)" d="M13.709 10.528h-8.691c-0.158 0-0.316-0.119-0.316-0.316 0-0.158 0.118-0.316 0.316-0.316h8.691c0.158 0 0.316 0.119 0.316 0.316s-0.119 0.316-0.316 0.316z"></path>
<path fill="#2b2929" style="fill: var(--color3, #2b2929)" d="M13.709 8.158h-8.691c-0.158 0-0.316-0.119-0.316-0.316 0-0.158 0.118-0.316 0.316-0.316h8.691c0.158 0 0.316 0.118 0.316 0.316s-0.119 0.316-0.316 0.316z"></path>
</symbol>
<symbol id="box" viewBox="0 0 32 32">
<path fill="#ffbc57" style="fill: var(--color1, #ffbc57)" d="M15.36 31c3.093 0 5.6-2.507 5.6-5.6s-2.507-5.6-5.6-5.6c-3.093 0-5.6 2.507-5.6 5.6s2.507 5.6 5.6 5.6z"></path>
<path fill="#ffbc57" style="fill: var(--color1, #ffbc57)" d="M5.2 15.4c2.651 0 4.8-2.149 4.8-4.8s-2.149-4.8-4.8-4.8c-2.651 0-4.8 2.149-4.8 4.8s2.149 4.8 4.8 4.8z"></path>
<path fill="#ffbc57" style="fill: var(--color1, #ffbc57)" d="M23.84 19.6c4.418 0 8-3.582 8-8s-3.582-8-8-8c-4.418 0-8 3.582-8 8s3.582 8 8 8z"></path>
<path fill="#fff" style="fill: var(--color2, #fff)" d="M28.32 14.080l-11.2-4-11.2 4 11.2 4 11.2-4z"></path>
<path fill="#fff" style="fill: var(--color2, #fff)" d="M15.12 10.8l-9.2 3.28 9.2 3.32v-6.6z"></path>
<path fill="#fff" style="fill: var(--color2, #fff)" d="M26 14.92l-8.88-3.16v6.32l8.88-3.16z"></path>
<path fill="#2b2929" style="fill: var(--color3, #2b2929)" d="M17.12 18.4c-0.040 0-0.080 0-0.12 0l-11.2-4c-0.12-0.040-0.2-0.16-0.2-0.28s0.080-0.24 0.2-0.28l11.2-4c0.080-0.040 0.12-0.040 0.2 0l11.2 4c0.12 0.040 0.2 0.16 0.2 0.28s-0.080 0.24-0.2 0.28l-11.2 4c-0.040 0-0.080 0-0.080 0zM6.8 14.080l10.32 3.68 10.32-3.68-10.32-3.68-10.32 3.68z"></path>
<path fill="#fff" style="fill: var(--color2, #fff)" d="M15.52 7.28l-11.2 4 1.6 2.8 11.2-4-1.6-2.8z"></path>
<path fill="#fff" style="fill: var(--color2, #fff)" d="M17.12 10.080l-1.6-2.8-2.52 0.92 0.52 0.92c0.24 0.44 0.040 1-0.44 1.16l-7.76 2.76 0.6 1.040 11.2-4z"></path>
<path fill="#2b2929" style="fill: var(--color3, #2b2929)" d="M5.92 14.4c-0.12 0-0.2-0.040-0.28-0.16l-1.6-2.8c-0.040-0.080-0.040-0.16 0-0.24s0.080-0.16 0.2-0.16l11.2-4c0.12-0.040 0.28 0 0.36 0.12l1.6 2.8c0.040 0.080 0.040 0.16 0.040 0.24-0.040 0.080-0.080 0.16-0.2 0.16l-11.24 4.040c-0.040 0-0.080 0-0.080 0zM4.76 11.48l1.28 2.28 10.64-3.8-1.28-2.28-10.64 3.8z"></path>
<path fill="#fff" style="fill: var(--color2, #fff)" d="M18.72 7.28l11.2 4-1.6 2.8-11.2-4 1.6-2.8z"></path>
<path fill="#2b2929" style="fill: var(--color3, #2b2929)" d="M28.32 14.4c-0.040 0-0.080 0-0.12 0l-11.2-4c-0.080-0.040-0.16-0.080-0.2-0.16s-0.040-0.16 0.040-0.24l1.6-2.8c0.080-0.12 0.24-0.2 0.36-0.12l11.2 4c0.080 0.040 0.16 0.080 0.2 0.16s0.040 0.16-0.040 0.24l-1.6 2.8c-0.040 0.080-0.16 0.12-0.24 0.12zM17.56 9.92l10.64 3.8 1.28-2.28-10.64-3.8-1.28 2.28z"></path>
<path fill="#fff" style="fill: var(--color2, #fff)" d="M17.12 28.080l-11.2-4v-10l11.2 4v10z"></path>
<path fill="#fff" style="fill: var(--color2, #fff)" d="M14.56 25.52l-8.64-3.12v-8.32l9.2 3.28v7.76c0 0.28-0.28 0.48-0.56 0.4z"></path>
<path fill="#2b2929" style="fill: var(--color3, #2b2929)" d="M17.12 28.4c-0.040 0-0.080 0-0.12 0l-11.2-4c-0.12-0.040-0.2-0.16-0.2-0.28v-10c0-0.080 0.040-0.2 0.12-0.24s0.2-0.080 0.28-0.040l11.2 4c0.12 0.040 0.2 0.16 0.2 0.28v10c0 0.080-0.040 0.2-0.12 0.24-0.040 0.040-0.12 0.040-0.16 0.040zM6.2 23.88l10.6 3.8v-9.36l-10.6-3.8v9.36z"></path>
<path fill="#fff" style="fill: var(--color2, #fff)" d="M15.52 20.88l-11.2-4 1.6-2.8 11.2 4-1.6 2.8z"></path>
<path fill="#fff" style="fill: var(--color2, #fff)" d="M13.68 19.080l-8.8-3.16 1.040-1.84 9.44 3.36-0.72 1.24c-0.2 0.36-0.6 0.52-0.96 0.4z"></path>
<path fill="#2b2929" style="fill: var(--color3, #2b2929)" d="M15.52 21.2c-0.040 0-0.080 0-0.12 0l-11.2-4c-0.080-0.040-0.16-0.080-0.2-0.16 0-0.12 0-0.2 0.040-0.28l1.6-2.8c0.080-0.12 0.24-0.2 0.36-0.12l11.2 4c0.080 0.040 0.16 0.080 0.2 0.16s0.040 0.16-0.040 0.24l-1.6 2.8c-0.040 0.12-0.16 0.16-0.24 0.16zM4.76 16.72l10.64 3.8 1.28-2.28-10.64-3.8-1.28 2.28z"></path>
<path fill="#fff" style="fill: var(--color2, #fff)" d="M17.12 28.080l11.2-4v-10l-11.2 4v10z"></path>
<path fill="#fff" style="fill: var(--color2, #fff)" d="M17.12 26.32l9.080-3.24c0.32-0.12 0.52-0.4 0.52-0.76v-7.64l-9.6 3.44v8.2z"></path>
<path fill="#2b2929" style="fill: var(--color3, #2b2929)" d="M17.12 28.4c-0.080 0-0.12 0-0.16-0.040-0.080-0.040-0.12-0.16-0.12-0.24v-10c0-0.12 0.080-0.24 0.2-0.28l11.2-4c0.080-0.040 0.2 0 0.28 0.040s0.12 0.16 0.12 0.24v10c0 0.12-0.080 0.24-0.2 0.28l-11.24 4c-0.040 0-0.080 0-0.080 0zM17.4 18.32v9.36l10.6-3.8v-9.36l-10.6 3.8z"></path>
<path fill="#fff" style="fill: var(--color2, #fff)" d="M18.72 20.88l11.2-4-1.6-2.8-11.2 4 1.6 2.8z"></path>
<path fill="#fff" style="fill: var(--color2, #fff)" d="M18.12 19.84l8.48-3.040c0.48-0.16 0.68-0.72 0.44-1.16l-0.52-0.92-9.4 3.36 1 1.76z"></path>
<path fill="#2b2929" style="fill: var(--color3, #2b2929)" d="M18.72 21.2c-0.12 0-0.2-0.040-0.28-0.16l-1.6-2.8c-0.040-0.080-0.040-0.16 0-0.24s0.080-0.16 0.2-0.16l11.2-4c0.12-0.040 0.28 0 0.36 0.12l1.6 2.8c0.040 0.080 0.040 0.16 0.040 0.24-0.040 0.080-0.080 0.16-0.2 0.16l-11.24 4.040c-0.040 0-0.080 0-0.080 0zM17.56 18.28l1.28 2.28 10.64-3.8-1.28-2.28-10.64 3.8z"></path>
<path fill="#fff" style="fill: var(--color2, #fff)" d="M19.52 7.8v8.12h-4.8v-8.12h-3.2l5.6-5.72 5.56 5.72h-3.16z"></path>
<path fill="#ffbc57" style="fill: var(--color1, #ffbc57)" d="M17.32 15.6h-2.32v-7.8c0-0.16-0.12-0.32-0.32-0.32h-2.48l4.92-4.96 1.28 1.32c0.040 0.040 0.080 0.040 0.12 0l0.28-0.32c0.040-0.040 0.040-0.080 0-0.12l-1.48-1.52c-0.040-0.040-0.12-0.080-0.2-0.080s-0.16 0.040-0.2 0.080l-5.64 5.72c-0.080 0.080-0.12 0.2-0.080 0.32s0.16 0.2 0.28 0.2h2.92v7.8c0 0.16 0.12 0.32 0.32 0.32h2.6c0.040 0 0.080-0.040 0.080-0.080v-0.44c0-0.080-0.040-0.12-0.080-0.12z"></path>
<path fill="#2b2929" style="fill: var(--color3, #2b2929)" d="M19.2 3.96l-0.32 0.32c-0.040 0.040-0.040 0.080 0 0.12l3.080 3.12h-2.48c-0.16 0-0.32 0.12-0.32 0.32v7.76h-1.12c-0.040 0-0.040 0.040-0.040 0.080v0.44c0 0.040 0.040 0.080 0.080 0.080h1.44c0.16 0 0.32-0.12 0.32-0.32v-7.76h2.88c0.12 0 0.24-0.080 0.28-0.2s0.040-0.24-0.080-0.32l-3.56-3.64c-0.040-0.040-0.12-0.040-0.16 0z"></path>
</symbol>
<symbol id="headset" viewBox="0 0 32 32">
<path fill="#ffbc57" style="fill: var(--color1, #ffbc57)" d="M24.927 16.339c3.273 0 5.926-2.653 5.926-5.926s-2.653-5.926-5.926-5.926c-3.273 0-5.926 2.653-5.926 5.926s2.653 5.926 5.926 5.926z"></path>
<path fill="#ffbc57" style="fill: var(--color1, #ffbc57)" d="M8.673 10.159c2.805 0 5.079-2.274 5.079-5.079s-2.274-5.079-5.079-5.079c-2.805 0-5.079 2.274-5.079 5.079s2.274 5.079 5.079 5.079z"></path>
<path fill="#ffbc57" style="fill: var(--color1, #ffbc57)" d="M9.266 32c4.675 0 8.466-3.79 8.466-8.466s-3.79-8.466-8.466-8.466c-4.675 0-8.466 3.79-8.466 8.466s3.79 8.466 8.466 8.466z"></path>
<path fill="#fff" style="fill: var(--color2, #fff)" d="M15.742 9.354c-2.794 0.339-5.079 2.582-5.46 5.333-0.212 1.481 0.085 2.878 0.762 4.064l-0.847 3.259 3.259-0.804c1.185 0.677 2.582 0.974 4.063 0.762 2.794-0.423 4.995-2.667 5.333-5.46 0.508-4.19-2.963-7.661-7.111-7.153z"></path>
<path fill="#2b2929" style="fill: var(--color3, #2b2929)" d="M16.546 22.349c-1.101 0-2.159-0.254-3.132-0.804l-3.132 0.762c-0.127 0.042-0.212 0-0.296-0.085s-0.127-0.212-0.085-0.296l0.762-3.132c-0.677-1.27-0.931-2.709-0.72-4.148 0.423-2.963 2.794-5.249 5.757-5.63 2.074-0.254 4.106 0.423 5.545 1.905 1.481 1.481 2.159 3.471 1.905 5.545-0.381 2.963-2.667 5.333-5.63 5.757-0.296 0.085-0.635 0.127-0.974 0.127zM13.456 20.868c0.042 0 0.127 0 0.169 0.042 1.185 0.677 2.497 0.889 3.852 0.72 2.667-0.381 4.741-2.54 5.079-5.206 0.212-1.862-0.381-3.725-1.735-5.037-1.312-1.312-3.175-1.947-5.037-1.735-2.667 0.339-4.825 2.413-5.206 5.079-0.212 1.354 0.042 2.667 0.72 3.852 0.042 0.085 0.042 0.169 0.042 0.212l-0.677 2.794 2.751-0.677c0-0.042 0.042-0.042 0.042-0.042z"></path>
<path fill="#ffbc57" style="fill: var(--color1, #ffbc57)" d="M16.546 17.735c-0.169 0-0.339-0.127-0.339-0.339v-0.254c0-1.016 0.593-1.481 1.058-1.82 0.423-0.296 0.72-0.55 0.72-1.143 0-0.677-0.423-1.228-1.016-1.397-0.466-0.127-0.974-0.042-1.355 0.212-0.381 0.296-0.593 0.72-0.593 1.185 0 0.169-0.127 0.339-0.339 0.339-0.169 0-0.339-0.127-0.339-0.339 0-0.677 0.339-1.312 0.847-1.693 0.55-0.423 1.228-0.508 1.905-0.339 0.889 0.254 1.481 1.058 1.481 2.032 0 0.931-0.55 1.312-1.016 1.651-0.423 0.339-0.804 0.593-0.804 1.312v0.254c0.127 0.212 0 0.339-0.212 0.339z"></path>
<path fill="#ffbc57" style="fill: var(--color1, #ffbc57)" d="M16.842 18.963c-0.169-0.169-0.423-0.169-0.593 0-0.085 0.085-0.127 0.169-0.127 0.296s0.042 0.212 0.127 0.296c0.085 0.085 0.169 0.127 0.296 0.127s0.212-0.042 0.296-0.127c0.085-0.085 0.127-0.169 0.127-0.296s-0.042-0.254-0.127-0.296z"></path>
<path fill="#2b2929" style="fill: var(--color3, #2b2929)" d="M16.546 28.36c-0.169 0-0.339-0.127-0.339-0.339 0-0.169 0.127-0.339 0.339-0.339 6.603 0 11.979-5.376 11.979-11.979 0-6.519-5.376-11.894-11.979-11.894-6.561 0-11.937 5.376-11.937 11.937 0 0.212-0.127 0.339-0.339 0.339-0.169 0-0.339-0.127-0.339-0.339 0-6.942 5.63-12.614 12.571-12.614s12.656 5.672 12.656 12.614c0 6.942-5.672 12.614-12.614 12.614z"></path>
<path fill="#fff" style="fill: var(--color2, #fff)" d="M17.816 29.291h-2.54c-0.931 0-1.693-0.762-1.693-1.693s0.762-1.693 1.693-1.693h2.54c0.931 0 1.693 0.762 1.693 1.693 0 0.974-0.72 1.693-1.693 1.693z"></path>
<path fill="#2b2929" style="fill: var(--color3, #2b2929)" d="M17.816 29.63h-2.54c-1.101 0-2.032-0.889-2.032-2.032 0-1.101 0.889-2.032 2.032-2.032h2.54c1.101 0 2.032 0.889 2.032 2.032s-0.889 2.032-2.032 2.032zM15.276 26.243c-0.762 0-1.397 0.635-1.397 1.397s0.635 1.397 1.397 1.397h2.54c0.762 0 1.397-0.635 1.397-1.397s-0.635-1.397-1.397-1.397h-2.54z"></path>
<path fill="#fff" style="fill: var(--color2, #fff)" d="M6.387 20.402c-1.862 0-3.386-1.524-3.386-3.386v-2.54c0-1.862 1.524-3.386 3.386-3.386 0.466 0 0.847 0.381 0.847 0.847v7.619c0 0.508-0.381 0.847-0.847 0.847z"></path>
<path fill="#2b2929" style="fill: var(--color3, #2b2929)" d="M6.387 20.741c-2.032 0-3.725-1.651-3.725-3.725v-2.54c0-2.032 1.651-3.725 3.725-3.725 0.635 0 1.185 0.508 1.185 1.185v7.619c0 0.677-0.508 1.185-1.185 1.185zM6.387 11.429c-1.693 0-3.090 1.397-3.090 3.090v2.54c0 1.693 1.397 3.090 3.090 3.090 0.296 0 0.55-0.254 0.55-0.55v-7.619c0-0.296-0.254-0.55-0.55-0.55z"></path>
<path fill="#2b2929" style="fill: var(--color3, #2b2929)" d="M5.117 18.624c-0.169 0-0.339-0.127-0.339-0.339v-5.079c0-0.169 0.127-0.339 0.339-0.339 0.169 0 0.339 0.127 0.339 0.339v5.079c0 0.212-0.127 0.339-0.339 0.339z"></path>
<path fill="#fff" style="fill: var(--color2, #fff)" d="M26.705 20.402c-0.466 0-0.847-0.381-0.847-0.847v-7.619c0-0.466 0.381-0.847 0.847-0.847 1.862 0 3.386 1.524 3.386 3.386v2.54c0 1.905-1.481 3.386-3.386 3.386z"></path>
<path fill="#2b2929" style="fill: var(--color3, #2b2929)" d="M26.705 20.741c-0.635 0-1.143-0.508-1.143-1.185v-7.619c0-0.635 0.508-1.185 1.143-1.185 2.032 0 3.725 1.651 3.725 3.725v2.54c0 2.074-1.651 3.725-3.725 3.725zM26.705 11.429c-0.296 0-0.508 0.254-0.508 0.55v7.619c0 0.296 0.254 0.55 0.508 0.55 1.693 0 3.090-1.397 3.090-3.090v-2.54c0-1.735-1.397-3.090-3.090-3.090z"></path>
<path fill="#2b2929" style="fill: var(--color3, #2b2929)" d="M27.975 18.624c-0.169 0-0.339-0.127-0.339-0.339v-5.079c0-0.169 0.127-0.339 0.339-0.339 0.169 0 0.339 0.127 0.339 0.339v5.079c0 0.212-0.127 0.339-0.339 0.339z"></path>
<path fill="#ffbc57" style="fill: var(--color1, #ffbc57)" d="M9.393 7.407c0.042-0.042 0.042 0 0 0-0.085 0.042-0.212 0.127-0.339 0.169 0.169-0.042 0.254-0.085 0.339-0.169z"></path>
<path fill="#fff" style="fill: var(--color2, #fff)" d="M16.546 2.201c-3.386 0-6.476 1.228-8.847 3.302-0.423 0.339-0.423 0.974-0.042 1.354l0.508 0.508c0.339 0.339 0.889 0.339 1.27 0.042 1.905-1.651 4.402-2.624 7.153-2.624 2.709 0 5.249 0.974 7.153 2.624 0.381 0.296 0.931 0.296 1.27-0.042l0.508-0.508c0.381-0.381 0.381-1.016-0.042-1.354-2.413-2.032-5.545-3.302-8.931-3.302z"></path>
<path fill="#2b2929" style="fill: var(--color3, #2b2929)" d="M24.334 7.958c-0.296 0-0.593-0.085-0.804-0.296-1.947-1.693-4.402-2.582-6.984-2.582-2.54 0-4.995 0.931-6.942 2.582-0.508 0.423-1.228 0.423-1.693-0.042l-0.508-0.508c-0.254-0.254-0.381-0.593-0.381-0.931s0.169-0.677 0.423-0.889c2.497-2.159 5.714-3.386 9.058-3.386s6.561 1.185 9.058 3.386c0.254 0.212 0.423 0.55 0.423 0.889s-0.127 0.677-0.381 0.931l-0.508 0.508c-0.127 0.212-0.466 0.339-0.762 0.339zM16.546 4.444c2.709 0 5.291 0.974 7.365 2.709 0.254 0.212 0.593 0.212 0.847-0.042l0.508-0.508c0.127-0.127 0.169-0.296 0.169-0.466s-0.085-0.339-0.212-0.423c-2.413-2.032-5.503-3.175-8.677-3.175s-6.265 1.143-8.635 3.217c-0.127 0.127-0.212 0.254-0.212 0.423s0.042 0.339 0.169 0.466l0.508 0.508c0.212 0.212 0.593 0.254 0.847 0.042 2.032-1.778 4.656-2.751 7.323-2.751z"></path>
</symbol>
<symbol id="label" viewBox="0 0 32 32">
<path fill="#ffbc57" style="fill: var(--color1, #ffbc57)" d="M5.586 29.527c3.085 0 5.586-2.501 5.586-5.586s-2.501-5.586-5.586-5.586c-3.085 0-5.586 2.501-5.586 5.586s2.501 5.586 5.586 5.586z"></path>
<path fill="#ffbc57" style="fill: var(--color1, #ffbc57)" d="M14.484 9.976c2.644 0 4.788-2.144 4.788-4.788s-2.144-4.788-4.788-4.788c-2.644 0-4.788 2.144-4.788 4.788s2.144 4.788 4.788 4.788z"></path>
<path fill="#ffbc57" style="fill: var(--color1, #ffbc57)" d="M24.020 31.522c4.407 0 7.98-3.573 7.98-7.98s-3.573-7.98-7.98-7.98c-4.407 0-7.98 3.573-7.98 7.98s3.573 7.98 7.98 7.98z"></path>
<path fill="#fff" style="fill: var(--color2, #fff)" d="M16.479 29.487c7.052 0 12.768-5.716 12.768-12.768s-5.716-12.768-12.768-12.768c-7.052 0-12.768 5.716-12.768 12.768s5.716 12.768 12.768 12.768z"></path>
<path fill="#2b2929" style="fill: var(--color3, #2b2929)" d="M16.479 29.767c-7.222 0-13.087-5.865-13.087-13.087s5.865-13.047 13.087-13.047c7.222 0 13.047 5.865 13.047 13.087s-5.865 13.047-13.047 13.047zM16.479 4.231c-6.903 0-12.489 5.586-12.489 12.489 0 6.863 5.586 12.489 12.489 12.489 6.863 0 12.489-5.586 12.489-12.489-0.040-6.903-5.626-12.489-12.489-12.489z"></path>
<path fill="#fff" style="fill: var(--color2, #fff)" d="M16.239 11.931l-2.514-1.676c-1.636-1.077-3.791-0.838-5.107 0.599l-2.115 2.274c-0.399 0.439-0.599 0.997-0.519 1.596l1.596 12.569c0.080 0.638 0.678 1.117 1.317 1.037l8.698-1.077c0.638-0.080 1.117-0.678 1.037-1.317l-1.556-12.569c-0.040-0.599-0.359-1.117-0.838-1.436z"></path>
<path fill="#2b2929" style="fill: var(--color3, #2b2929)" d="M8.778 28.61c-0.319 0-0.638-0.12-0.918-0.319-0.319-0.239-0.519-0.599-0.559-0.998l-1.556-12.529c-0.080-0.678 0.12-1.357 0.598-1.835l2.115-2.274c1.436-1.556 3.751-1.835 5.506-0.638l2.514 1.676c0.559 0.359 0.918 0.958 0.997 1.636l1.556 12.569c0.040 0.399-0.040 0.798-0.319 1.117-0.239 0.319-0.598 0.519-0.998 0.559l-8.698 1.077c-0.12-0.040-0.199-0.040-0.239-0.040zM11.531 9.856c-0.998 0-1.955 0.399-2.673 1.197l-2.115 2.274c-0.319 0.359-0.479 0.878-0.439 1.357l1.556 12.529c0.040 0.239 0.16 0.439 0.359 0.599s0.439 0.199 0.678 0.199l8.698-1.077c0.239-0.040 0.439-0.16 0.599-0.359s0.199-0.439 0.199-0.678l-1.556-12.569c-0.080-0.479-0.319-0.918-0.718-1.197l-2.554-1.636c-0.599-0.399-1.317-0.638-2.035-0.638z"></path>
<path fill="#fff" style="fill: var(--color2, #fff)" d="M18.434 8.021l-2.873-0.918c-1.835-0.598-3.87 0.239-4.748 1.995l-1.396 2.753c-0.239 0.519-0.239 1.157 0 1.676l4.948 11.651c0.279 0.598 0.958 0.878 1.556 0.638l8.1-3.471c0.599-0.239 0.878-0.958 0.638-1.556l-4.988-11.651c-0.239-0.519-0.678-0.918-1.237-1.117z"></path>
<path fill="#2b2929" style="fill: var(--color3, #2b2929)" d="M15.441 26.176c-0.598 0-1.117-0.359-1.396-0.918l-4.908-11.611c-0.279-0.638-0.239-1.317 0.040-1.915l1.397-2.753c0.958-1.875 3.112-2.793 5.107-2.155l2.873 0.918c0.638 0.199 1.157 0.678 1.397 1.277l4.948 11.651c0.319 0.758-0.040 1.636-0.798 1.955l-8.060 3.431c-0.2 0.080-0.399 0.12-0.599 0.12zM14.364 7.223c-1.357 0-2.594 0.758-3.232 2.035l-1.397 2.753c-0.239 0.439-0.239 0.958-0.040 1.436l4.948 11.611c0.2 0.439 0.718 0.678 1.197 0.479l8.060-3.431c0.439-0.2 0.678-0.718 0.479-1.197l-4.988-11.651c-0.199-0.439-0.559-0.798-1.037-0.958l-2.873-0.918c-0.359-0.12-0.758-0.16-1.117-0.16z"></path>
<path fill="#2b2929" style="fill: var(--color3, #2b2929)" d="M14.324 12.969c-0.279 0-0.519-0.040-0.798-0.16-0.519-0.199-0.918-0.598-1.157-1.117s-0.239-1.077 0-1.596c0.199-0.519 0.598-0.918 1.117-1.157s1.077-0.239 1.596 0c0.519 0.2 0.918 0.599 1.157 1.117s0.239 1.077 0 1.596c-0.2 0.519-0.599 0.918-1.117 1.157-0.239 0.080-0.519 0.16-0.798 0.16zM14.324 9.378c-0.199 0-0.399 0.040-0.598 0.12-0.359 0.16-0.638 0.439-0.798 0.798s-0.16 0.758 0 1.157c0.16 0.359 0.439 0.638 0.798 0.798s0.758 0.16 1.157 0c0.359-0.16 0.638-0.439 0.798-0.798s0.16-0.758 0-1.157c-0.16-0.359-0.439-0.638-0.838-0.798-0.12-0.080-0.319-0.12-0.519-0.12z"></path>
<path fill="#2b2929" style="fill: var(--color3, #2b2929)" d="M14.963 11.373c-0.479 0-0.798-0.239-0.958-0.439-0.359-0.439-0.399-1.117-0.16-1.955 0.040-0.16 0.2-0.239 0.359-0.2s0.239 0.2 0.199 0.359c-0.199 0.598-0.16 1.157 0.040 1.396 0.12 0.16 0.319 0.2 0.559 0.2 0.958-0.080 2.314-1.317 2.953-2.713 0.479-0.997 0.399-1.676 0.2-1.955-0.12-0.16-0.319-0.239-0.559-0.239-0.599 0.040-1.397 0.559-2.075 1.357-0.12 0.12-0.279 0.16-0.439 0.040-0.12-0.12-0.16-0.279-0.040-0.439 0.798-0.918 1.716-1.516 2.514-1.596 0.479-0.040 0.878 0.12 1.117 0.479 0.399 0.559 0.319 1.516-0.16 2.554-0.758 1.636-2.274 2.993-3.471 3.072 0 0.080-0.040 0.080-0.080 0.080z"></path>
<path fill="#ffbc57" style="fill: var(--color1, #ffbc57)" d="M15.88 23.422c-0.040 0-0.080 0-0.12-0.040-0.16-0.080-0.239-0.239-0.16-0.399l3.591-8.898c0.080-0.16 0.239-0.239 0.399-0.16s0.239 0.239 0.16 0.399l-3.591 8.898c-0.040 0.12-0.16 0.199-0.279 0.199z"></path>
<path fill="#fff" style="fill: var(--color2, #fff)" d="M15.92 17.078c0.279 0.599-0.040 1.317-0.638 1.596s-1.317-0.040-1.596-0.638c-0.279-0.598 0.040-1.317 0.638-1.596 0.638-0.279 1.357 0 1.596 0.638z"></path>
<path fill="#ffbc57" style="fill: var(--color1, #ffbc57)" d="M14.803 19.033c-0.2 0-0.399-0.040-0.559-0.12-0.359-0.16-0.678-0.439-0.838-0.798-0.319-0.758 0.040-1.636 0.798-1.995 0.758-0.319 1.636 0.040 1.995 0.798 0.16 0.359 0.16 0.798 0 1.157s-0.439 0.678-0.798 0.838c-0.199 0.080-0.399 0.12-0.598 0.12zM14.803 16.639c-0.12 0-0.239 0.040-0.359 0.080-0.479 0.199-0.678 0.718-0.479 1.197 0.080 0.239 0.279 0.399 0.479 0.479 0.239 0.080 0.479 0.080 0.678 0 0.239-0.080 0.399-0.279 0.479-0.479 0.080-0.239 0.080-0.479 0-0.678-0.12-0.399-0.439-0.598-0.798-0.598z"></path>
<path fill="#fff" style="fill: var(--color2, #fff)" d="M21.626 19.353c0.279 0.599-0.040 1.317-0.638 1.596s-1.317-0.040-1.596-0.638c-0.279-0.598 0.040-1.317 0.638-1.596 0.638-0.239 1.357 0.040 1.596 0.638z"></path>
<path fill="#ffbc57" style="fill: var(--color1, #ffbc57)" d="M20.509 21.348c-0.599 0-1.157-0.359-1.397-0.918-0.319-0.758 0.040-1.636 0.798-1.995 0.758-0.319 1.636 0.040 1.995 0.798 0.319 0.758-0.040 1.636-0.798 1.995-0.199 0.080-0.399 0.12-0.598 0.12zM20.509 18.914c-0.12 0-0.239 0.040-0.359 0.080-0.479 0.199-0.678 0.718-0.479 1.197s0.718 0.678 1.197 0.479c0.479-0.199 0.678-0.718 0.479-1.197-0.12-0.319-0.479-0.559-0.838-0.559z"></path>
<path fill="#2b2929" style="fill: var(--color3, #2b2929)" d="M8.938 21.986c-0.16 0-0.279-0.12-0.279-0.279l-0.718-5.865c-0.040-0.16 0.080-0.319 0.279-0.319 0.16-0.040 0.319 0.080 0.319 0.279l0.718 5.865c0 0.16-0.12 0.279-0.319 0.319 0.040 0 0 0 0 0z"></path>
<path fill="#2b2929" style="fill: var(--color3, #2b2929)" d="M9.377 25.378c-0.16 0-0.279-0.12-0.279-0.279l-0.199-1.596c-0.040-0.16 0.080-0.319 0.279-0.319 0.16 0 0.319 0.080 0.319 0.279l0.2 1.596c-0.040 0.12-0.12 0.279-0.319 0.319z"></path>
</symbol>

<symbol id="success" viewBox="0 0 32 32">
<path fill="#fff" style="fill: var(--color1, #fff)" d="M32 16c0 8.837-7.163 16-16 16s-16-7.163-16-16c0-8.837 7.163-16 16-16s16 7.163 16 16z"></path>
<path fill="#f8f8f8" style="fill: var(--color2, #f8f8f8)" d="M15.157 26.353c5.252 0 9.51-4.258 9.51-9.51s-4.258-9.51-9.51-9.51-9.51 4.258-9.51 9.51c0 5.252 4.258 9.51 9.51 9.51z"></path>
<path fill="#ffbc57" style="fill: var(--color3, #ffbc57)" d="M26.152 13.529c-0.129-0.635-0.324-1.258-0.575-1.854-0.247-0.585-0.554-1.149-0.91-1.677-0.352-0.522-0.758-1.014-1.205-1.459-0.447-0.447-0.937-0.851-1.459-1.205-0.527-0.357-1.092-0.662-1.677-0.911-0.597-0.253-1.221-0.446-1.854-0.575-0.651-0.133-1.319-0.201-1.988-0.201s-1.337 0.068-1.988 0.201c-0.635 0.129-1.258 0.324-1.854 0.575-0.585 0.247-1.149 0.554-1.677 0.911-0.522 0.352-1.014 0.758-1.459 1.205-0.447 0.447-0.851 0.937-1.205 1.459-0.357 0.527-0.662 1.092-0.911 1.677-0.253 0.596-0.446 1.221-0.575 1.854-0.133 0.651-0.201 1.319-0.201 1.988s0.068 1.337 0.201 1.988c0.13 0.635 0.324 1.258 0.575 1.854 0.247 0.585 0.554 1.149 0.911 1.677 0.352 0.522 0.758 1.013 1.205 1.459 0.447 0.447 0.937 0.851 1.459 1.205 0.527 0.357 1.092 0.662 1.677 0.911 0.596 0.253 1.221 0.446 1.854 0.575 0.651 0.133 1.319 0.2 1.988 0.2s1.337-0.068 1.988-0.2c0.635-0.13 1.258-0.324 1.854-0.575 0.585-0.247 1.149-0.554 1.677-0.911 0.522-0.352 1.014-0.758 1.459-1.205 0.447-0.447 0.851-0.937 1.205-1.459 0.357-0.528 0.662-1.092 0.91-1.677 0.253-0.597 0.446-1.221 0.575-1.854 0.133-0.651 0.201-1.319 0.201-1.988s-0.068-1.337-0.201-1.988zM25.128 15.517c0 4.774-3.871 8.645-8.645 8.645s-8.645-3.871-8.645-8.645c0-4.774 3.87-8.645 8.645-8.645s8.645 3.871 8.645 8.645z"></path>
<path fill="#2b2929" style="fill: var(--color4, #2b2929)" d="M14.727 19.549c-0.003 0-0.007 0-0.011 0-0.19-0.003-0.367-0.095-0.481-0.247l-1.943-2.616c-0.202-0.272-0.145-0.655 0.126-0.857s0.655-0.145 0.857 0.126l1.469 1.977 4.961-6.216c0.211-0.264 0.597-0.308 0.861-0.097s0.308 0.596 0.097 0.861l-5.456 6.838c-0.117 0.145-0.293 0.23-0.479 0.23z"></path>
</symbol>

<symbol id="counter" viewBox="0 0 32 32">
<path fill="#ffbc57" style="fill: var(--color1, #ffbc57)" d="M32 16c0 8.837-7.163 16-16 16s-16-7.163-16-16c0-8.837 7.163-16 16-16s16 7.163 16 16z"></path>
<path fill="#fff" style="fill: var(--color2, #fff)" d="M22.806 10.574h-3.964v-1.081c0-0.659-0.535-1.191-1.194-1.191h-8.457c-0.658 0-1.191 0.535-1.191 1.191v13.014c0 0.659 0.535 1.191 1.191 1.191h8.457c0.658 0 1.194-0.535 1.194-1.191v-1.62h3.964c0.659 0 1.194-0.535 1.194-1.191v-7.928c-0.003-0.659-0.539-1.194-1.194-1.194zM21.632 11.372v8.717h-0.768v-8.717h0.768zM18.044 22.503c0 0.216-0.176 0.392-0.396 0.392h-8.457c-0.216 0-0.392-0.176-0.392-0.392v-13.010c0-0.216 0.176-0.392 0.392-0.392h8.457c0.216 0 0.396 0.176 0.396 0.392v13.010zM18.842 11.372h1.227v8.717h-1.227v-8.717zM23.198 19.693c0 0.216-0.176 0.392-0.396 0.392h-0.372v-8.713h0.372c0.216 0 0.396 0.176 0.396 0.392v7.928z"></path>
<path fill="#fff" style="fill: var(--color2, #fff)" d="M11.133 15.44h4.573c0.562 0 1.018-0.456 1.018-1.018v-2.99c0-0.562-0.456-1.018-1.018-1.018h-4.573c-0.562 0-1.018 0.456-1.018 1.018v2.99c0 0.562 0.456 1.018 1.018 1.018zM10.913 11.432c0-0.123 0.1-0.22 0.22-0.22h4.573c0.123 0 0.22 0.1 0.22 0.22v2.99c0 0.123-0.1 0.22-0.22 0.22h-4.573c-0.123 0-0.22-0.1-0.22-0.22v-2.99z"></path>
<path fill="#fff" style="fill: var(--color2, #fff)" d="M11.043 17.096h-0.529c-0.22 0-0.399 0.18-0.399 0.399s0.18 0.399 0.399 0.399h0.529c0.22 0 0.399-0.18 0.399-0.399s-0.18-0.399-0.399-0.399z"></path>
<path fill="#fff" style="fill: var(--color2, #fff)" d="M13.684 17.096h-0.529c-0.22 0-0.399 0.18-0.399 0.399s0.18 0.399 0.399 0.399h0.529c0.22 0 0.399-0.18 0.399-0.399s-0.18-0.399-0.399-0.399z"></path>
<path fill="#fff" style="fill: var(--color2, #fff)" d="M16.328 17.096h-0.529c-0.22 0-0.399 0.18-0.399 0.399s0.18 0.399 0.399 0.399h0.529c0.22 0 0.399-0.18 0.399-0.399s-0.18-0.399-0.399-0.399z"></path>
<path fill="#fff" style="fill: var(--color2, #fff)" d="M11.043 18.898h-0.529c-0.22 0-0.399 0.18-0.399 0.399s0.18 0.399 0.399 0.399h0.529c0.22 0 0.399-0.18 0.399-0.399s-0.18-0.399-0.399-0.399z"></path>
<path fill="#fff" style="fill: var(--color2, #fff)" d="M13.684 18.898h-0.529c-0.22 0-0.399 0.18-0.399 0.399s0.18 0.399 0.399 0.399h0.529c0.22 0 0.399-0.18 0.399-0.399s-0.18-0.399-0.399-0.399z"></path>
<path fill="#fff" style="fill: var(--color2, #fff)" d="M16.328 18.898h-0.529c-0.22 0-0.399 0.18-0.399 0.399s0.18 0.399 0.399 0.399h0.529c0.22 0 0.399-0.18 0.399-0.399s-0.18-0.399-0.399-0.399z"></path>
<path fill="#fff" style="fill: var(--color2, #fff)" d="M11.043 20.701h-0.529c-0.22 0-0.399 0.18-0.399 0.399s0.18 0.399 0.399 0.399h0.529c0.22 0 0.399-0.18 0.399-0.399s-0.18-0.399-0.399-0.399z"></path>
<path fill="#fff" style="fill: var(--color2, #fff)" d="M13.684 20.701h-0.529c-0.22 0-0.399 0.18-0.399 0.399s0.18 0.399 0.399 0.399h0.529c0.22 0 0.399-0.18 0.399-0.399s-0.18-0.399-0.399-0.399z"></path>
<path fill="#fff" style="fill: var(--color2, #fff)" d="M16.328 20.701h-0.529c-0.22 0-0.399 0.18-0.399 0.399s0.18 0.399 0.399 0.399h0.529c0.22 0 0.399-0.18 0.399-0.399s-0.18-0.399-0.399-0.399z"></path>
</symbol>

<symbol id="credit-card" viewBox="0 0 32 32">
<path fill="#ffbc57" style="fill: var(--color1, #ffbc57)" d="M32 16c0 8.837-7.163 16-16 16s-16-7.163-16-16c0-8.837 7.163-16 16-16s16 7.163 16 16z"></path>
<path fill="#fff" style="fill: var(--color2, #fff)" d="M9 9.12c-0.299 0-0.52 0.221-0.52 0.52v6.96c0 0.349 0.228 0.52 0.4 0.52h0.8c0.221 0 0.4 0.179 0.4 0.4s-0.179 0.4-0.4 0.4h-0.8c-0.708 0-1.2-0.629-1.2-1.32v-6.96c0-0.741 0.579-1.32 1.32-1.32h11.36c0.741 0 1.32 0.579 1.32 1.32v3.48c0 0.221-0.179 0.4-0.4 0.4s-0.4-0.179-0.4-0.4v-3.48c0-0.299-0.221-0.52-0.52-0.52h-11.36z"></path>
<path fill="#fff" style="fill: var(--color2, #fff)" d="M7.68 10.72c0-0.221 0.179-0.4 0.4-0.4h13.2c0.221 0 0.4 0.179 0.4 0.4v1.6c0 0.221-0.179 0.4-0.4 0.4h-13.2c-0.221 0-0.4-0.179-0.4-0.4v-1.6zM8.48 11.12v0.8h12.4v-0.8h-12.4z"></path>
<path fill="#fff" style="fill: var(--color2, #fff)" d="M11.8 14.72c-0.299 0-0.52 0.221-0.52 0.52v6.96c0 0.299 0.221 0.52 0.52 0.52h11.32c0.31 0 0.56-0.272 0.56-0.52v-6.96c0-0.299-0.221-0.52-0.52-0.52h-11.36zM10.48 15.24c0-0.741 0.579-1.32 1.32-1.32h11.36c0.741 0 1.32 0.579 1.32 1.32v6.96c0 0.712-0.63 1.32-1.36 1.32h-11.32c-0.741 0-1.32-0.579-1.32-1.32v-6.96z"></path>
<path fill="#fff" style="fill: var(--color2, #fff)" d="M12.48 21.12c0-0.221 0.179-0.4 0.4-0.4h2c0.221 0 0.4 0.179 0.4 0.4s-0.179 0.4-0.4 0.4h-2c-0.221 0-0.4-0.179-0.4-0.4z"></path>
<path fill="#fff" style="fill: var(--color2, #fff)" d="M16.080 21.12c0-0.221 0.179-0.4 0.4-0.4h2c0.221 0 0.4 0.179 0.4 0.4s-0.179 0.4-0.4 0.4h-2c-0.221 0-0.4-0.179-0.4-0.4z"></path>
<path fill="#fff" style="fill: var(--color2, #fff)" d="M19.68 21.12c0-0.221 0.179-0.4 0.4-0.4h2c0.221 0 0.4 0.179 0.4 0.4s-0.179 0.4-0.4 0.4h-2c-0.221 0-0.4-0.179-0.4-0.4z"></path>
<path fill="#fff" style="fill: var(--color2, #fff)" d="M21.080 17.12c-0.331 0-0.6 0.269-0.6 0.6s0.269 0.6 0.6 0.6c0.331 0 0.6-0.269 0.6-0.6s-0.269-0.6-0.6-0.6zM19.68 17.72c0-0.773 0.627-1.4 1.4-1.4s1.4 0.627 1.4 1.4c0 0.773-0.627 1.4-1.4 1.4s-1.4-0.627-1.4-1.4z"></path>
</symbol>

<symbol id="receipt" viewBox="0 0 32 32">
<path fill="#ffbc57" style="fill: var(--color1, #ffbc57)" d="M32 16c0 8.837-7.163 16-16 16s-16-7.163-16-16c0-8.837 7.163-16 16-16s16 7.163 16 16z"></path>
<path fill="#fff" style="fill: var(--color2, #fff)" d="M20.319 7.739c0.119 0.073 0.191 0.202 0.191 0.341v7.162c0 0.221-0.179 0.4-0.4 0.4s-0.4-0.179-0.4-0.4v-6.507l-1.145 0.586c-0.116 0.059-0.253 0.059-0.368-0.002l-1.499-0.787-1.499 0.787c-0.116 0.061-0.255 0.061-0.372 0l-1.499-0.787-1.499 0.787c-0.118 0.062-0.258 0.061-0.376-0.002l-1.053-0.567v12.977l1.092-0.601c0.12-0.066 0.265-0.066 0.386 0l1.492 0.821 1.492-0.821c0.194-0.106 0.437-0.036 0.543 0.158s0.036 0.437-0.158 0.543l-1.685 0.927c-0.12 0.066-0.265 0.066-0.386 0l-1.492-0.821-1.492 0.821c-0.124 0.068-0.275 0.066-0.396-0.006s-0.196-0.203-0.196-0.344v-14.323c0-0.141 0.074-0.271 0.195-0.343s0.271-0.076 0.395-0.009l1.456 0.784 1.497-0.786c0.116-0.061 0.255-0.061 0.372 0l1.499 0.787 1.499-0.787c0.116-0.061 0.255-0.061 0.372 0l1.501 0.788 1.543-0.79c0.124-0.064 0.272-0.058 0.391 0.015z"></path>
<path fill="#fff" style="fill: var(--color2, #fff)" d="M13.391 11.871c0-0.221 0.179-0.4 0.4-0.4h4.213c0.221 0 0.4 0.179 0.4 0.4s-0.179 0.4-0.4 0.4h-4.213c-0.221 0-0.4-0.179-0.4-0.4z"></path>
<path fill="#fff" style="fill: var(--color2, #fff)" d="M11.285 16.084c0-0.221 0.179-0.4 0.4-0.4h5.055c0.221 0 0.4 0.179 0.4 0.4s-0.179 0.4-0.4 0.4h-5.055c-0.221 0-0.4-0.179-0.4-0.4z"></path>
<path fill="#fff" style="fill: var(--color2, #fff)" d="M11.285 17.769c0-0.221 0.179-0.4 0.4-0.4h2.949c0.221 0 0.4 0.179 0.4 0.4s-0.179 0.4-0.4 0.4h-2.949c-0.221 0-0.4-0.179-0.4-0.4z"></path>
<path fill="#fff" style="fill: var(--color2, #fff)" d="M13.391 13.556c0-0.221 0.179-0.4 0.4-0.4h2.949c0.221 0 0.4 0.179 0.4 0.4s-0.179 0.4-0.4 0.4h-2.949c-0.221 0-0.4-0.179-0.4-0.4z"></path>
<path fill="#fff" style="fill: var(--color2, #fff)" d="M11.285 11.871c0-0.221 0.179-0.4 0.4-0.4h0.843c0.221 0 0.4 0.179 0.4 0.4s-0.179 0.4-0.4 0.4h-0.843c-0.221 0-0.4-0.179-0.4-0.4z"></path>
<path fill="#fff" style="fill: var(--color2, #fff)" d="M11.285 13.556c0-0.221 0.179-0.4 0.4-0.4h0.843c0.221 0 0.4 0.179 0.4 0.4s-0.179 0.4-0.4 0.4h-0.843c-0.221 0-0.4-0.179-0.4-0.4z"></path>
<path fill="#fff" style="fill: var(--color2, #fff)" d="M19.689 16.905c-1.873 0-3.391 1.518-3.391 3.391s1.518 3.391 3.391 3.391c1.873 0 3.391-1.518 3.391-3.391s-1.518-3.391-3.391-3.391zM15.498 20.297c0-2.315 1.877-4.191 4.191-4.191s4.191 1.877 4.191 4.191c0 2.315-1.877 4.191-4.191 4.191s-4.191-1.877-4.191-4.191z"></path>
<path fill="#fff" style="fill: var(--color2, #fff)" d="M19.268 19.012c-0.242 0-0.443 0.2-0.443 0.443s0.2 0.443 0.443 0.443h0.843c0.684 0 1.243 0.558 1.243 1.243s-0.558 1.243-1.243 1.243h-1.685c-0.221 0-0.4-0.179-0.4-0.4s0.179-0.4 0.4-0.4h1.685c0.242 0 0.443-0.2 0.443-0.443s-0.2-0.443-0.443-0.443h-0.843c-0.684 0-1.243-0.558-1.243-1.243s0.558-1.243 1.243-1.243h1.685c0.221 0 0.4 0.179 0.4 0.4s-0.179 0.4-0.4 0.4h-1.685z"></path>
<path fill="#fff" style="fill: var(--color2, #fff)" d="M21.395 20.297c0-0.221 0.179-0.4 0.4-0.4h0.843c0.221 0 0.4 0.179 0.4 0.4s-0.179 0.4-0.4 0.4h-0.843c-0.221 0-0.4-0.179-0.4-0.4z"></path>
<path fill="#fff" style="fill: var(--color2, #fff)" d="M16.34 20.297c0-0.221 0.179-0.4 0.4-0.4h0.843c0.221 0 0.4 0.179 0.4 0.4s-0.179 0.4-0.4 0.4h-0.843c-0.221 0-0.4-0.179-0.4-0.4z"></path>
</symbol>

<symbol id="withdraw-money" viewBox="0 0 32 32">
<path fill="#ffbc57" style="fill: var(--color1, #ffbc57)" d="M32 16c0 8.837-7.163 16-16 16s-16-7.163-16-16c0-8.837 7.163-16 16-16s16 7.163 16 16z"></path>
<path fill="#fff" style="fill: var(--color2, #fff)" d="M19.88 13.96c-0.508 0.138-0.88 0.602-0.88 1.154v3.075l-0.666-0.592c-0.155-0.137-0.285-0.21-0.422-0.253-0.143-0.045-0.317-0.065-0.573-0.065-1.101 0-2.078 0.802-2.078 1.826 0 0.221-0.179 0.4-0.4 0.4s-0.4-0.179-0.4-0.4c0-1.58 1.459-2.626 2.878-2.626 0.291 0 0.558 0.022 0.813 0.103 0.016 0.005 0.031 0.010 0.047 0.015v-1.482c0-1.103 0.893-1.996 1.996-1.996h0.484v5.86c0 0.956-0.273 1.87-0.733 2.606-0.117 0.187-0.364 0.244-0.551 0.127s-0.244-0.364-0.127-0.551c0.38-0.608 0.611-1.374 0.611-2.182v-5.018z"></path>
<path fill="#fff" style="fill: var(--color2, #fff)" d="M11.838 16.52c0.221 0 0.4 0.179 0.4 0.4v2.73c0 0.532 0.114 1.010 0.329 1.404 0.106 0.194 0.034 0.437-0.16 0.543s-0.437 0.034-0.543-0.16c-0.289-0.529-0.427-1.143-0.427-1.788v-2.73c0-0.221 0.179-0.4 0.4-0.4z"></path>
<path fill="#fff" style="fill: var(--color2, #fff)" d="M11.48 21.14h9.2v1.66c0 0.221-0.179 0.4-0.4 0.4s-0.4-0.179-0.4-0.4v-0.86h-7.6v0.86c0 0.221-0.179 0.4-0.4 0.4s-0.4-0.179-0.4-0.4v-1.66z"></path>
<path fill="#fff" style="fill: var(--color2, #fff)" d="M8.96 9.36c0-0.221 0.179-0.4 0.4-0.4h13.44c0.221 0 0.4 0.179 0.4 0.4v7.56c0 0.221-0.179 0.4-0.4 0.4h-2.52c-0.221 0-0.4-0.179-0.4-0.4s0.179-0.4 0.4-0.4h2.12v-6.76h-12.64v6.76h8.84c0.221 0 0.4 0.179 0.4 0.4s-0.179 0.4-0.4 0.4h-9.24c-0.221 0-0.4-0.179-0.4-0.4v-7.56z"></path>
<path fill="#fff" style="fill: var(--color2, #fff)" d="M15.87 11.44c-1.055 0-1.91 0.855-1.91 1.91s0.855 1.91 1.91 1.91c1.055 0 1.91-0.855 1.91-1.91s-0.855-1.91-1.91-1.91zM13.16 13.35c0-1.497 1.213-2.71 2.71-2.71s2.71 1.213 2.71 2.71c0 1.497-1.213 2.71-2.71 2.71s-2.71-1.213-2.71-2.71z"></path>
<path fill="#fff" style="fill: var(--color2, #fff)" d="M20.532 9.758c0.221 0 0.4 0.179 0.4 0.4 0 0.535 0.409 0.944 0.944 0.944 0.221 0 0.4 0.179 0.4 0.4s-0.179 0.4-0.4 0.4c-0.977 0-1.744-0.767-1.744-1.744 0-0.221 0.179-0.4 0.4-0.4z"></path>
<path fill="#fff" style="fill: var(--color2, #fff)" d="M9.8 14.694c0-0.221 0.179-0.4 0.4-0.4 0.961 0 1.786 0.751 1.786 1.744 0 0.221-0.179 0.4-0.4 0.4s-0.4-0.179-0.4-0.4c0-0.519-0.435-0.944-0.986-0.944-0.221 0-0.4-0.179-0.4-0.4z"></path>
<path fill="#fff" style="fill: var(--color2, #fff)" d="M11.544 9.8c0.221 0 0.4 0.179 0.4 0.4 0 0.951-0.826 1.702-1.744 1.702-0.221 0-0.4-0.179-0.4-0.4s0.179-0.4 0.4-0.4c0.51 0 0.944-0.425 0.944-0.902 0-0.221 0.179-0.4 0.4-0.4z"></path>
<path fill="#fff" style="fill: var(--color2, #fff)" d="M20.090 16.038c0-0.993 0.825-1.744 1.786-1.744 0.221 0 0.4 0.179 0.4 0.4s-0.179 0.4-0.4 0.4c-0.551 0-0.986 0.425-0.986 0.944 0 0.221-0.179 0.4-0.4 0.4s-0.4-0.179-0.4-0.4z"></path>
</symbol>

<symbol id="map" viewBox="0 0 32 32">
<path fill="#ffbc57" style="fill: var(--color1, #ffbc57)" d="M32 16c0 8.837-7.163 16-16 16s-16-7.163-16-16c0-8.837 7.163-16 16-16s16 7.163 16 16z"></path>
<path fill="#fff" style="fill: var(--color2, #fff)" d="M28.726 13.737l-0.182-0.431-1.259-0.751-1.597 0.012-0.872-1.044-1.005 0.406-0.8-0.305-0.555 0.187-1.042-1.821-0.739-0.063-0.499-1.942-1.996-0.303-0.389 0.499-1.667-0.021-0.536 0.781-0.054 0.972-0.522-0.534-1.066 0.182-0.277-0.543-1.949 0.165-2.714-1.159-1.525-0.084-1.142 1.024 0.448 1.581-2.306 2.075 0.163 1.135-0.438-0.189-0.686 0.956 1.119 1.401 2.129 0.406 0.462 0.529 1.835-0.42 0.226-0.448 1.744-0.417 1.863 1.124 0.315 1.009 0.611 0.476-0.033 0.802 0.485 0.928-1.066 0.298-0.396 0.737-1.077 0.963 0.727 0.66 2.084-1.161 1.017-1.299 0.581-0.373 1.138-0.177-0.17 0.422-0.054 0.082 0.648 0.762 2.017 0.009 0.1 0.445-1.737 0.97 1.555 0.774 0.014 0.513-0.284 0.613 0.534 0.35 0.898-0.322 1.951-1.261 1.217 0.056 0.182-0.774-0.671-0.044-0.97 0.382-0.739-0.895-1.597-1.003 1.956-0.138 0.021 0.012 0.886-0.874 2.401-1.047 0.919-0.084 0.124-1.084 0.94-0.602 1.038-0.035 0.249-0.965-0.45-1.292 0.466-0.793z"></path>
</symbol>

<symbol id="allocation" viewBox="0 0 32 32">
<path fill="#ffbc57" style="fill: var(--color1, #ffbc57)" d="M32 16c0 8.837-7.163 16-16 16s-16-7.163-16-16c0-8.837 7.163-16 16-16s16 7.163 16 16z"></path>
<path fill="#fff" style="fill: var(--color2, #fff)" d="M14.578 7.538c-4.099 0.701-7.218 4.271-7.218 8.569 0 4.801 3.892 8.693 8.693 8.693 4.298 0 7.868-3.12 8.569-7.218 0.138-0.807-0.539-1.475-1.358-1.475h-5.729c-0.819 0-1.482-0.664-1.482-1.482v-5.728c0-0.819-0.668-1.496-1.475-1.358z"></path>
<path fill="#fff" style="fill: var(--color2, #fff)" d="M17.474 9.861v3.833c0 0.548 0.444 0.992 0.992 0.992h3.833c0.548 0 1.001-0.447 0.908-0.987-0.414-2.421-2.325-4.333-4.746-4.747-0.54-0.092-0.987 0.361-0.987 0.909z"></path>
</symbol>

<symbol id="success-payment" viewBox="0 0 32 32">
<path fill="#ffbc57" style="fill: var(--color1, #ffbc57)" d="M32 16c0 8.837-7.163 16-16 16s-16-7.163-16-16c0-8.837 7.163-16 16-16s16 7.163 16 16z"></path>
<path fill="#fff" style="fill: var(--color2, #fff)" d="M24.377 10.734l-1.831-1.831c-0.337-0.337-0.898-0.352-1.252-0.033l-6.979 6.277c-0.354 0.319-0.933 0.323-1.293 0.010l-1.897-1.652c-0.36-0.313-0.924-0.294-1.261 0.044l-2.251 2.252c-0.337 0.337-0.337 0.884 0 1.221l5.642 5.642c0 0 0.183 0.183 0.408 0.408s0.667 0.121 0.986-0.233l9.761-10.852c0.319-0.355 0.304-0.915-0.032-1.252z"></path>
</symbol>


</defs></svg>