<svg aria-hidden="true" style="position: absolute; width: 0; height: 0; overflow: hidden;" version="1.1" xmlns="http://www.w3.org/2000/svg" xmlns:xlink="http://www.w3.org/1999/xlink">
<defs>
<symbol id="viber" viewBox="0 0 32 32">
<path fill="#6f3faa" style="fill: var(--color1, #6f3faa)" d="M16 32c8.837 0 16-7.163 16-16s-7.163-16-16-16c-8.837 0-16 7.163-16 16s7.163 16 16 16z"></path>
<path fill="#fff" style="fill: var(--color2, #fff)" d="M24.464 11.245l-0.005-0.021c-0.428-1.728-2.355-3.583-4.125-3.969l-0.020-0.004c-2.863-0.546-5.766-0.546-8.628 0l-0.021 0.004c-1.769 0.386-3.697 2.24-4.125 3.969l-0.005 0.021c-0.529 2.414-0.529 4.861 0 7.275l0.005 0.021c0.41 1.654 2.194 3.424 3.898 3.91v1.929c0 0.698 0.851 1.041 1.335 0.537l1.955-2.032c0.424 0.024 0.848 0.037 1.272 0.037 1.441 0 2.883-0.136 4.314-0.409l0.020-0.004c1.77-0.386 3.697-2.24 4.125-3.969l0.005-0.021c0.528-2.414 0.528-4.861 0-7.275zM22.917 18.17c-0.285 1.128-1.749 2.529-2.912 2.788-1.522 0.29-3.057 0.413-4.589 0.371-0.030-0.001-0.060 0.011-0.081 0.033-0.217 0.223-1.427 1.465-1.427 1.465l-1.518 1.558c-0.111 0.116-0.306 0.037-0.306-0.123v-3.196c0-0.053-0.038-0.098-0.089-0.108-0-0-0.001-0-0.001-0-1.163-0.259-2.626-1.661-2.912-2.788-0.476-2.182-0.476-4.393 0-6.575 0.286-1.128 1.749-2.529 2.912-2.788 2.658-0.506 5.354-0.506 8.012 0 1.163 0.259 2.626 1.661 2.911 2.788 0.476 2.182 0.476 4.393 0 6.575z"></path>
<path fill="#fff" style="fill: var(--color2, #fff)" d="M18.529 19.645c-0.179-0.054-0.349-0.091-0.507-0.156-1.639-0.68-3.148-1.558-4.343-2.903-0.68-0.765-1.212-1.628-1.661-2.542-0.213-0.433-0.393-0.884-0.576-1.331-0.167-0.408 0.079-0.829 0.338-1.137 0.243-0.289 0.556-0.509 0.895-0.672 0.264-0.127 0.525-0.054 0.718 0.17 0.417 0.485 0.801 0.994 1.111 1.555 0.191 0.345 0.139 0.768-0.207 1.003-0.084 0.057-0.161 0.124-0.239 0.189-0.069 0.057-0.133 0.114-0.18 0.19-0.086 0.14-0.090 0.305-0.035 0.458 0.427 1.172 1.146 2.084 2.326 2.576 0.189 0.079 0.378 0.17 0.596 0.145 0.364-0.043 0.482-0.442 0.738-0.651 0.25-0.204 0.569-0.207 0.837-0.037s0.53 0.353 0.789 0.538c0.254 0.181 0.508 0.358 0.742 0.565 0.226 0.199 0.303 0.459 0.176 0.729-0.233 0.494-0.571 0.905-1.059 1.167-0.138 0.074-0.302 0.098-0.458 0.146 0.155-0.048-0.179-0.054 0 0z"></path>
<path fill="#fff" style="fill: var(--color2, #fff)" d="M16.004 10.339c2.144 0.060 3.906 1.483 4.283 3.603 0.064 0.361 0.087 0.731 0.116 1.097 0.012 0.154-0.075 0.301-0.242 0.303-0.172 0.002-0.249-0.142-0.26-0.296-0.022-0.305-0.037-0.612-0.079-0.914-0.222-1.597-1.496-2.919-3.086-3.203-0.239-0.043-0.484-0.054-0.727-0.079-0.153-0.016-0.354-0.025-0.388-0.216-0.028-0.16 0.106-0.287 0.258-0.295 0.041-0.002 0.083-0.001 0.124-0 2.144 0.060-0.041-0 0 0z"></path>
<path fill="#fff" style="fill: var(--color2, #fff)" d="M19.263 14.564c-0.004 0.027-0.005 0.090-0.021 0.149-0.057 0.215-0.383 0.242-0.458 0.025-0.022-0.064-0.026-0.138-0.026-0.207-0.001-0.454-0.099-0.908-0.329-1.303-0.235-0.406-0.595-0.747-1.017-0.954-0.255-0.125-0.531-0.203-0.811-0.249-0.122-0.020-0.246-0.032-0.369-0.050-0.149-0.021-0.228-0.116-0.221-0.262 0.007-0.137 0.107-0.236 0.257-0.228 0.492 0.028 0.967 0.134 1.405 0.366 0.89 0.471 1.398 1.215 1.546 2.208 0.007 0.045 0.017 0.089 0.021 0.135 0.008 0.111 0.014 0.223 0.022 0.37-0.004 0.027-0.009-0.147 0 0z"></path>
<path fill="#fff" style="fill: var(--color2, #fff)" d="M17.93 14.512c-0.179 0.003-0.275-0.096-0.294-0.26-0.013-0.115-0.023-0.231-0.050-0.342-0.054-0.22-0.171-0.423-0.356-0.558-0.087-0.064-0.186-0.11-0.29-0.14-0.132-0.038-0.268-0.028-0.399-0.060-0.142-0.035-0.221-0.15-0.199-0.284 0.020-0.122 0.139-0.217 0.272-0.207 0.831 0.060 1.425 0.49 1.51 1.469 0.006 0.069 0.013 0.142-0.002 0.208-0.026 0.113-0.11 0.17-0.192 0.175 0.082-0.006-0.179 0.003 0 0z"></path>
<path fill="#fff" style="fill: var(--color2, #fff)" d="M18.529 19.645c-0.179-0.054 0.155-0.048 0 0v0z"></path>
<path fill="#fff" style="fill: var(--color2, #fff)" d="M16.010 10.339c-0.002 0-0.004-0-0.005-0s0 0 0.005 0z"></path>
<path fill="#fff" style="fill: var(--color2, #fff)" d="M16.005 10.339c0.002 0 0.004 0 0.005 0 0.119 0.004 2.055 0.058-0.005-0z"></path>
<path fill="#fff" style="fill: var(--color2, #fff)" d="M19.263 14.564c-0.009-0.147-0.004 0.027 0 0v0z"></path>
<path fill="#fff" style="fill: var(--color2, #fff)" d="M17.93 14.512c0.003-0 0.006-0.002 0.008-0.002-0.008 0-0.019 0-0.031 0.001 0.008 0 0.015 0.001 0.023 0.001z"></path>
<path fill="#fff" style="fill: var(--color2, #fff)" d="M17.93 14.512c-0.008 0-0.015-0.001-0.023-0.001-0.039 0.001-0.079 0.003 0.023 0.001z"></path>
<path fill="#fff" style="fill: var(--color2, #fff)" d="M17.938 14.51c-0.003 0-0.006 0.002-0.008 0.002 0.021-0.002 0.019-0.002 0.008-0.002z"></path>
</symbol>

<symbol id="telegram" viewBox="0 0 32 32">
<path fill="#40b3e0" style="fill: var(--color3, #40b3e0)" d="M16 0c-8.837 0-16 7.163-16 16s7.163 16 16 16c8.837 0 16-7.163 16-16s-7.163-16-16-16z"></path>
<path fill="#fff" style="fill: var(--color2, #fff)" d="M23.785 9.204l-2.858 14.408c0 0-0.4 0.999-1.499 0.52l-6.595-5.056-2.398-1.159-4.037-1.359c0 0-0.62-0.22-0.679-0.699s0.699-0.739 0.699-0.739l16.047-6.295c0 0 1.319-0.579 1.319 0.38z"></path>
<path fill="#d2e5f1" style="fill: var(--color4, #d2e5f1)" d="M12.327 23.45c0 0-0.192-0.018-0.432-0.777s-1.459-4.756-1.459-4.756l9.692-6.155c0 0 0.56-0.34 0.54 0 0 0 0.1 0.060-0.2 0.34s-7.614 6.854-7.614 6.854z"></path>
<path fill="#b5cfe4" style="fill: var(--color5, #b5cfe4)" d="M15.363 21.014l-2.608 2.378c0 0-0.204 0.155-0.427 0.058l0.5-4.418z"></path>
</symbol>

<symbol id="whatsapp" viewBox="0 0 32 32">
<path fill="#75b73b" style="fill: var(--color6, #75b73b)" d="M16 32c8.837 0 16-7.163 16-16s-7.163-16-16-16c-8.837 0-16 7.163-16 16s7.163 16 16 16z"></path>
<path fill="#fff" style="fill: var(--color2, #fff)" d="M15.552 6.778c-4.877 0.232-8.725 4.294-8.711 9.176 0.005 1.487 0.364 2.891 0.997 4.131l-0.972 4.72c-0.053 0.255 0.178 0.479 0.431 0.419l4.625-1.096c1.188 0.592 2.523 0.934 3.935 0.955 4.985 0.076 9.141-3.882 9.296-8.864 0.166-5.341-4.242-9.696-9.601-9.44zM21.071 20.996c-1.354 1.354-3.155 2.1-5.071 2.1-1.121 0-2.195-0.252-3.192-0.748l-0.644-0.321-2.836 0.672 0.597-2.897-0.317-0.621c-0.517-1.013-0.78-2.108-0.78-3.255 0-1.916 0.746-3.716 2.1-5.071 1.342-1.342 3.172-2.1 5.071-2.1 1.915 0 3.716 0.746 5.070 2.1s2.1 3.155 2.1 5.070c0 1.899-0.758 3.729-2.1 5.071z"></path>
<path fill="#fff" style="fill: var(--color2, #fff)" d="M20.445 17.911l-1.774-0.509c-0.233-0.067-0.484-0.001-0.654 0.173l-0.434 0.442c-0.183 0.187-0.46 0.246-0.703 0.148-0.839-0.34-2.604-1.909-3.055-2.694-0.13-0.227-0.109-0.51 0.051-0.716l0.379-0.49c0.148-0.192 0.18-0.45 0.082-0.672l-0.746-1.688c-0.179-0.404-0.695-0.522-1.033-0.237-0.495 0.419-1.082 1.055-1.154 1.76-0.126 1.243 0.407 2.81 2.423 4.691 2.329 2.174 4.193 2.461 5.408 2.166 0.689-0.167 1.239-0.835 1.586-1.383 0.237-0.374 0.050-0.869-0.375-0.991z"></path>
</symbol>

<symbol id="logo" viewBox="0 0 160 32">
<path fill="#535353" style="fill: var(--color1, #535353)" d="M63.057 23.378h-2.325v-1.196h5.853v1.196h-2.325v5.902h-1.283v-5.902h0.080zM72.357 29.28h-4.249v-7.099h4.089v1.196h-2.886v1.755h2.566v1.196h-2.566v1.834h2.966v1.117h0.080zM78.531 22.182h1.443l-2.405 3.43 2.486 3.589h-1.444l-1.844-2.632-1.844 2.632h-1.443l2.486-3.589-2.405-3.43h1.443l1.764 2.552 1.764-2.552zM87.351 29.28h-1.283v-3.031h-3.208v3.031h-1.283v-7.099h1.283v2.871h3.288v-2.871h1.203v7.099zM89.196 25.771c0-1.037 0.321-1.914 1.042-2.632s1.604-1.037 2.646-1.037c1.042 0 1.924 0.319 2.646 1.037s1.042 1.595 1.042 2.632c0 1.037-0.321 1.914-1.042 2.632s-1.604 1.037-2.646 1.037c-1.043 0-1.924-0.319-2.646-1.037s-1.042-1.595-1.042-2.632zM90.478 25.771c0 0.718 0.241 1.276 0.641 1.755s1.043 0.718 1.684 0.718c0.722 0 1.283-0.239 1.764-0.718 0.401-0.479 0.642-1.037 0.642-1.755s-0.241-1.356-0.722-1.755c-0.481-0.479-1.043-0.718-1.684-0.718-0.721 0-1.283 0.239-1.684 0.718-0.401 0.399-0.641 1.037-0.641 1.755zM103.628 29.28h-1.203v-5.902h-2.084l-0.161 1.356c-0.080 0.798-0.16 1.515-0.321 2.074s-0.241 1.037-0.401 1.356c-0.161 0.319-0.321 0.638-0.561 0.798s-0.401 0.319-0.642 0.319c-0.24 0.080-0.481 0.080-0.801 0v-1.196c0.16 0 0.24 0 0.401 0 0.080 0 0.241-0.16 0.321-0.319 0.161-0.16 0.241-0.399 0.321-0.718 0.241-0.718 0.401-1.834 0.561-3.43l0.080-1.436h4.49v7.099zM105.472 25.771c0-1.037 0.321-1.914 1.042-2.632s1.604-1.037 2.646-1.037c1.042 0 1.924 0.319 2.646 1.037s1.043 1.595 1.043 2.632c0 1.037-0.321 1.914-1.043 2.632s-1.604 1.037-2.646 1.037c-1.043 0-1.924-0.319-2.646-1.037s-1.042-1.595-1.042-2.632zM106.835 25.771c0 0.718 0.241 1.276 0.642 1.755s1.042 0.718 1.684 0.718c0.721 0 1.283-0.239 1.764-0.718 0.401-0.479 0.641-1.037 0.641-1.755s-0.241-1.356-0.721-1.755c-0.481-0.479-1.043-0.718-1.684-0.718-0.722 0-1.283 0.239-1.684 0.718-0.481 0.399-0.642 1.037-0.642 1.755zM115.976 29.28h-1.283v-7.099h4.009v1.196h-2.726v5.902zM121.668 29.28h-1.283v-7.099h1.283v7.099zM123.512 20.985c0-0.16 0.080-0.319 0.161-0.479 0.16-0.080 0.321-0.16 0.481-0.16s0.321 0.080 0.481 0.16c0.161 0.080 0.161 0.239 0.161 0.479s-0.081 0.399-0.161 0.479c-0.080 0.080-0.241 0.16-0.481 0.16-0.16 0-0.321-0.080-0.481-0.16-0.081-0.16-0.161-0.319-0.161-0.479zM125.597 29.28h-1.283v-7.099h1.283v7.099zM125.196 20.985c0-0.16 0.080-0.319 0.16-0.479 0.161-0.080 0.321-0.16 0.481-0.16s0.321 0.080 0.481 0.16c0.16 0.16 0.16 0.239 0.16 0.479s-0.080 0.399-0.16 0.479c-0.080 0.16-0.241 0.16-0.481 0.16s-0.401-0.080-0.481-0.16c-0.080-0.16-0.16-0.319-0.16-0.479zM135.619 27.685l0.481 0.957c-0.241 0.239-0.561 0.399-0.962 0.558s-0.882 0.239-1.283 0.239c-1.123 0-2.004-0.319-2.646-1.037-0.641-0.638-1.043-1.515-1.043-2.632 0-1.037 0.321-1.914 0.963-2.632s1.523-1.037 2.646-1.037c0.882 0 1.604 0.239 2.165 0.718l-0.561 0.957c-0.481-0.319-1.043-0.479-1.604-0.479-0.641 0-1.203 0.239-1.684 0.638-0.401 0.479-0.641 1.037-0.641 1.835 0 0.718 0.241 1.356 0.641 1.834 0.481 0.479 1.043 0.718 1.764 0.718 0.722-0.080 1.283-0.239 1.764-0.638zM143.477 29.28h-1.203v-3.031h-3.288v3.031h-1.283v-7.099h1.283v2.871h3.288v-2.871h1.203v7.099zM150.453 22.182h1.283l-2.405 5.424c-0.241 0.558-0.561 0.957-0.802 1.276-0.321 0.239-0.641 0.399-1.123 0.399s-0.722-0.080-0.963-0.319l0.401-1.037c0.16 0.080 0.321 0.16 0.561 0.16 0.321 0 0.561-0.16 0.721-0.479l0.081-0.239-3.127-5.184h1.443l2.325 3.988 1.604-3.988z"></path>
<path fill="#535353" style="fill: var(--color1, #535353)" d="M59.293 10.058l6.896 8.375h-4.41l-5.532-6.939v6.939h-3.448v-15.713h3.448v6.381l5.292-6.381h4.25l-6.495 7.338zM129.61 5.99h4.811v12.443h3.448v-12.443h4.811v-3.27h-13.149v3.27h0.080zM76.131 12.132l4.891 6.301h-4.17l-4.089-5.583h-1.283v5.583h-3.448v-15.713h0.401c0.721 0 1.523 0 2.405 0s1.604 0 2.165 0c4.811 0 5.853 2.712 5.853 5.025 0 1.196-0.321 2.233-0.962 3.031-0.561 0.558-1.123 1.037-1.764 1.356zM71.881 5.99c-0.161 0-0.241 0-0.401 0v3.589h1.283c0.722 0 1.363-0.16 1.844-0.558 0.401-0.319 0.642-0.798 0.642-1.356 0-0.798-0.241-1.755-2.406-1.755-0.080 0-0.16 0-0.321 0-0.16 0.080-0.401 0.080-0.641 0.080zM124.078 2.72l6.655 15.713h-3.688l-1.523-3.829h-5.853l-1.524 3.829h-3.528l6.575-15.713h2.886zM122.555 7.505l-1.604 3.829h3.207l-1.603-3.829zM159.678 10.616c0 2.313-0.802 4.307-2.325 5.823s-3.528 2.313-5.853 2.313-4.33-0.718-5.853-2.233c-1.524-1.516-2.325-3.43-2.325-5.823 0-2.233 0.801-4.227 2.325-5.743s3.528-2.313 5.853-2.313 4.33 0.718 5.853 2.233c1.523 1.356 2.325 3.35 2.325 5.743zM154.867 14.046c0.882-0.957 1.283-2.074 1.283-3.51s-0.401-2.552-1.363-3.51c-0.882-0.877-2.004-1.356-3.288-1.356-1.363 0-2.405 0.479-3.287 1.356s-1.283 2.074-1.283 3.51 0.401 2.552 1.283 3.43c0.882 0.957 1.924 1.356 3.287 1.356 1.443 0.080 2.486-0.319 3.368-1.276zM112.692 2.72l-4.009 10.369-4.17-10.369h-3.688l6.495 15.713h2.566l6.334-15.713h-3.528z"></path>
<path fill="#00b5ff" style="fill: var(--color2, #00b5ff)" d="M97.985 4.156c-0.964-0.958-2.251-1.517-3.617-1.517s-2.652 0.559-3.617 1.517l-0.241 0.239-0.322-0.319c-0.964-0.958-2.25-1.517-3.617-1.517s-2.653 0.559-3.617 1.517-1.528 2.235-1.528 3.592c0 1.357 0.563 2.634 1.528 3.592l6.993 6.944c0.161 0.16 0.321 0.239 0.563 0.239s0.402-0.080 0.563-0.239l6.993-6.944c0.964-0.958 1.527-2.235 1.527-3.592s-0.563-2.554-1.608-3.512z"></path>
<path fill="#ffbc00" style="fill: var(--color3, #ffbc00)" d="M80.828 9.167h19.243v9.654h-19.243v-9.654z"></path>
<path fill="#ffbc57" style="fill: var(--color4, #ffbc57)" d="M4.63 11.776v16.896c0 0.461-0.309 0.768-0.772 0.768h-3.087c-0.463 0-0.772-0.307-0.772-0.768v-16.896c0-0.461 0.309-0.768 0.772-0.768h3.087c0.463 0 0.772 0.384 0.772 0.768zM46.588 11.008h-3.087c-0.463 0-0.772 0.307-0.772 0.768v16.896c0 0.461 0.309 0.768 0.772 0.768h3.087c0.463 0 0.772-0.307 0.772-0.768v-16.896c0-0.384-0.309-0.768-0.772-0.768z"></path>
<path fill="#ffbc57" style="fill: var(--color4, #ffbc57)" d="M41.186 16.384v4.608c0 0.461-0.309 0.768-0.772 0.768h-33.469c-0.463 0-0.772-0.307-0.772-0.768v-4.608c0-0.461 0.309-0.768 0.772-0.768h33.469c0.463 0 0.772 0.307 0.772 0.768zM6.945 14.080h9.098c0.463 0 0.772-0.307 0.772-0.768v-9.984c0-0.461-0.309-0.768-0.772-0.768h-9.098c-0.463 0-0.772 0.307-0.772 0.768v9.984c0 0.461 0.309 0.768 0.772 0.768zM19.131 14.080h9.099c0.463 0 0.772-0.307 0.772-0.768v-9.984c0-0.461-0.309-0.768-0.772-0.768h-9.099c-0.463 0-0.772 0.307-0.772 0.768v9.984c0 0.461 0.309 0.768 0.772 0.768zM40.415 2.56h-9.099c-0.463 0-0.772 0.307-0.772 0.768v9.984c0 0.461 0.309 0.768 0.772 0.768h9.099c0.463 0 0.772-0.307 0.772-0.768v-9.984c0-0.461-0.309-0.768-0.772-0.768zM40.415 23.296h-33.469c-0.463 0-0.772 0.307-0.772 0.768v4.608c0 0.461 0.309 0.768 0.772 0.768h4.468c0.463 0 0.772-0.307 0.772-0.768v-0.768h22.989v0.768c0 0.461 0.309 0.768 0.772 0.768h4.468c0.463 0 0.772-0.307 0.772-0.768v-4.608c0-0.461-0.309-0.768-0.772-0.768z"></path>
</symbol>

<symbol id="menu-catalog" viewBox="0 0 32 32">
<path fill="#fff" style="fill: var(--color1, #fff)" d="M28 4.634h-6.83c-0.736 0-1.333 0.597-1.333 1.333v6.83c0 0.736 0.597 1.333 1.333 1.333h6.83c0.736 0 1.333-0.597 1.333-1.333v-6.83c0-0.736-0.597-1.333-1.333-1.333z"></path>
<path fill="#fff" style="fill: var(--color1, #fff)" d="M15.155 8.439l-4.83-4.83c-0.521-0.521-1.365-0.521-1.886 0l-4.83 4.83c-0.521 0.521-0.521 1.365 0 1.886l4.83 4.83c0.521 0.521 1.365 0.521 1.886 0l4.83-4.83c0.521-0.521 0.521-1.365 0-1.886z"></path>
<path fill="#fff" style="fill: var(--color1, #fff)" d="M12.797 19.836h-6.83c-0.736 0-1.333 0.597-1.333 1.333v6.83c0 0.736 0.597 1.333 1.333 1.333h6.83c0.736 0 1.333-0.597 1.333-1.333v-6.83c0-0.736-0.597-1.333-1.333-1.333z"></path>
<path fill="#fff" style="fill: var(--color1, #fff)" d="M28 19.836h-6.83c-0.736 0-1.333 0.597-1.333 1.333v6.83c0 0.736 0.597 1.333 1.333 1.333h6.83c0.736 0 1.333-0.597 1.333-1.333v-6.83c0-0.736-0.597-1.333-1.333-1.333z"></path>
</symbol>

<symbol id="search" viewBox="0 0 32 32">
<path fill="#535353" style="fill: var(--color1, #535353)" d="M30.236 29.415l-5.685-5.644c2.207-2.754 3.276-6.249 2.986-9.767s-1.914-6.792-4.541-9.147-6.056-3.615-9.582-3.518c-3.526 0.097-6.881 1.541-9.375 4.037s-3.938 5.854-4.034 9.382c-0.096 3.529 1.162 6.96 3.516 9.589s5.625 4.255 9.14 4.545c3.515 0.289 7.008-0.78 9.759-2.989l5.639 5.644c0.143 0.144 0.312 0.258 0.499 0.336s0.387 0.118 0.589 0.118c0.202 0 0.403-0.040 0.589-0.118s0.356-0.192 0.499-0.336c0.276-0.286 0.431-0.668 0.431-1.066s-0.154-0.78-0.431-1.066zM13.824 25.903c-2.122 0-4.196-0.63-5.96-1.809s-3.139-2.856-3.951-4.818c-0.812-1.962-1.024-4.12-0.61-6.203s1.436-3.995 2.936-5.497c1.5-1.501 3.412-2.524 5.492-2.938s4.238-0.202 6.198 0.611c1.96 0.813 3.635 2.188 4.814 3.954s1.808 3.841 1.808 5.964c0 2.847-1.13 5.578-3.142 7.591s-4.74 3.144-7.585 3.144z"></path>
</symbol>

<symbol id="tel" viewBox="0 0 32 32">
<path fill="#f8f8f8" style="fill: var(--color3, #f8f8f8)" d="M32 16c0 8.837-7.163 16-16 16s-16-7.163-16-16c0-8.837 7.163-16 16-16s16 7.163 16 16z"></path>
<path fill="#535353" style="fill: var(--color1, #535353)" d="M21.179 17.085c-0.163 0-0.332-0.052-0.495-0.089-0.329-0.074-0.652-0.17-0.968-0.288-0.343-0.125-0.719-0.118-1.058 0.018s-0.614 0.393-0.774 0.721l-0.163 0.34c-0.717-0.407-1.38-0.903-1.972-1.477-0.574-0.592-1.070-1.255-1.477-1.972l0.34-0.155c0.328-0.16 0.584-0.436 0.72-0.774s0.143-0.715 0.018-1.058c-0.117-0.318-0.213-0.644-0.288-0.975-0.037-0.162-0.066-0.332-0.089-0.495-0.090-0.52-0.362-0.992-0.768-1.329s-0.92-0.518-1.448-0.511h-2.223c-0.312-0-0.621 0.065-0.906 0.192s-0.54 0.313-0.748 0.546c-0.213 0.239-0.371 0.521-0.464 0.827s-0.119 0.629-0.075 0.945c0.402 3.075 1.806 5.931 3.996 8.126 2.195 2.19 5.051 3.595 8.125 3.996 0.096 0.007 0.192 0.007 0.288 0 0.545 0.001 1.071-0.199 1.477-0.561 0.233-0.208 0.419-0.463 0.546-0.748s0.193-0.594 0.192-0.906v-2.216c-0.004-0.51-0.184-1.004-0.51-1.397s-0.777-0.662-1.278-0.76zM21.541 21.518c-0 0.103-0.022 0.205-0.064 0.299s-0.103 0.178-0.18 0.248c-0.081 0.074-0.177 0.129-0.282 0.16s-0.215 0.040-0.324 0.024c-2.757-0.36-5.318-1.616-7.291-3.575-1.974-1.974-3.241-4.545-3.605-7.313-0.016-0.108-0.008-0.219 0.024-0.324s0.087-0.201 0.161-0.282c0.070-0.077 0.155-0.139 0.251-0.181s0.199-0.063 0.303-0.063h2.216c0.171-0.004 0.338 0.051 0.472 0.156s0.229 0.254 0.266 0.42c0 0.199 0.066 0.406 0.111 0.606 0.085 0.387 0.199 0.767 0.34 1.138l-1.034 0.488c-0.178 0.082-0.316 0.23-0.384 0.414-0.074 0.18-0.074 0.382 0 0.561 1.063 2.277 2.894 4.108 5.171 5.171 0.18 0.074 0.382 0.074 0.561 0 0.183-0.068 0.332-0.206 0.414-0.384l0.465-1.034c0.381 0.139 0.771 0.252 1.167 0.34 0.192 0.044 0.399 0.081 0.598 0.111 0.167 0.038 0.315 0.132 0.42 0.266s0.16 0.302 0.156 0.472l0.066 2.283zM17.182 8.96c-0.17 0-0.347 0-0.517 0-0.196 0.017-0.377 0.11-0.504 0.261s-0.189 0.345-0.172 0.541 0.11 0.377 0.261 0.504c0.15 0.127 0.345 0.189 0.541 0.172h0.392c1.175 0 2.303 0.467 3.134 1.298s1.298 1.958 1.298 3.134c0 0.133 0 0.259 0 0.392-0.016 0.195 0.045 0.388 0.171 0.538s0.306 0.243 0.501 0.26h0.059c0.185 0.001 0.363-0.068 0.5-0.192s0.222-0.296 0.239-0.48c0-0.17 0-0.347 0-0.517 0-1.566-0.622-3.068-1.728-4.176s-2.608-1.731-4.174-1.733zM18.66 14.869c0 0.196 0.078 0.384 0.216 0.522s0.326 0.216 0.522 0.216 0.384-0.078 0.522-0.216c0.139-0.139 0.216-0.326 0.216-0.522 0-0.784-0.311-1.535-0.865-2.089s-1.306-0.865-2.089-0.865c-0.196 0-0.384 0.078-0.522 0.216s-0.216 0.326-0.216 0.522 0.078 0.384 0.216 0.522c0.139 0.139 0.326 0.216 0.522 0.216 0.392 0 0.768 0.156 1.045 0.433s0.433 0.653 0.433 1.045z"></path>
</symbol>

<symbol id="basket" viewBox="0 0 32 32">
<path fill="none" stroke="#ffbc57" style="stroke: var(--color4, #ffbc57)" stroke-linejoin="miter" stroke-linecap="butt" stroke-miterlimit="4" stroke-width="1.28" d="M31.36 16c0 8.483-6.877 15.36-15.36 15.36s-15.36-6.877-15.36-15.36c0-8.483 6.877-15.36 15.36-15.36s15.36 6.877 15.36 15.36z"></path>
<path fill="#535353" style="fill: var(--color1, #535353)" d="M17.918 21.13c0.213 0 0.417-0.084 0.568-0.234s0.235-0.352 0.235-0.564v-1.595c0-0.212-0.085-0.414-0.235-0.564s-0.355-0.234-0.568-0.234-0.417 0.084-0.568 0.234c-0.151 0.149-0.235 0.352-0.235 0.564v1.595c0 0.211 0.085 0.414 0.235 0.564s0.355 0.234 0.568 0.234zM14.707 21.13c0.213 0 0.417-0.084 0.568-0.234s0.235-0.352 0.235-0.564v-1.595c0-0.212-0.085-0.414-0.235-0.564s-0.355-0.234-0.568-0.234c-0.213 0-0.417 0.084-0.568 0.234s-0.235 0.352-0.235 0.564v1.595c0 0.211 0.085 0.414 0.235 0.564s0.355 0.234 0.568 0.234zM21.932 11.562h-1.108l-1.389-2.751c-0.042-0.101-0.105-0.193-0.185-0.269s-0.174-0.135-0.278-0.173c-0.104-0.038-0.214-0.054-0.324-0.048s-0.218 0.035-0.316 0.084c-0.099 0.050-0.186 0.119-0.256 0.203s-0.122 0.182-0.153 0.288c-0.031 0.105-0.039 0.216-0.024 0.325s0.051 0.213 0.108 0.307l1.020 2.033h-5.428l1.020-2.033c0.078-0.186 0.082-0.394 0.012-0.583s-0.21-0.344-0.391-0.435c-0.181-0.091-0.39-0.11-0.585-0.055s-0.361 0.183-0.466 0.355l-1.389 2.751h-1.108c-0.568 0.008-1.114 0.216-1.542 0.585s-0.712 0.877-0.8 1.434 0.024 1.127 0.318 1.609c0.293 0.482 0.749 0.847 1.286 1.028l0.594 5.948c0.060 0.592 0.34 1.141 0.785 1.539s1.024 0.617 1.623 0.614h6.728c0.599 0.003 1.178-0.216 1.623-0.614s0.725-0.947 0.785-1.539l0.594-5.948c0.538-0.182 0.995-0.547 1.288-1.031s0.405-1.056 0.314-1.613c-0.090-0.558-0.377-1.066-0.808-1.434s-0.98-0.573-1.549-0.578zM20.479 22.008c-0.020 0.197-0.113 0.38-0.262 0.513s-0.341 0.206-0.541 0.205h-6.728c-0.2 0.001-0.393-0.072-0.541-0.205s-0.242-0.316-0.262-0.513l-0.57-5.661h9.474l-0.57 5.661zM21.932 14.751h-11.24c-0.213 0-0.417-0.084-0.568-0.234s-0.235-0.352-0.235-0.564 0.085-0.414 0.235-0.564c0.151-0.15 0.355-0.234 0.568-0.234h11.24c0.213 0 0.417 0.084 0.568 0.234s0.235 0.352 0.235 0.564-0.085 0.414-0.235 0.564c-0.151 0.149-0.355 0.234-0.568 0.234z"></path>
</symbol>

<symbol id="favorite" viewBox="0 0 32 32">
<path fill="none" stroke="#ffbc57" style="stroke: var(--color4, #ffbc57)" stroke-linejoin="miter" stroke-linecap="butt" stroke-miterlimit="4" stroke-width="1.28" d="M31.36 16c0 8.483-6.877 15.36-15.36 15.36s-15.36-6.877-15.36-15.36c0-8.483 6.877-15.36 15.36-15.36s15.36 6.877 15.36 15.36z"></path>
<path fill="#535353" style="fill: var(--color1, #535353)" d="M22.76 10.519c-0.88-0.882-2.046-1.42-3.288-1.518s-2.478 0.253-3.484 0.987c-1.056-0.785-2.37-1.142-3.678-0.997s-2.512 0.78-3.371 1.777c-0.858 0.997-1.307 2.283-1.256 3.598s0.599 2.562 1.533 3.489l5.154 5.162c0.432 0.425 1.013 0.663 1.618 0.663s1.187-0.238 1.618-0.663l5.154-5.162c0.969-0.975 1.513-2.293 1.513-3.668s-0.544-2.693-1.513-3.668zM21.59 16.71l-5.153 5.154c-0.059 0.059-0.128 0.106-0.205 0.138s-0.159 0.049-0.243 0.049c-0.083 0-0.166-0.017-0.243-0.049s-0.147-0.079-0.205-0.138l-5.154-5.178c-0.651-0.665-1.015-1.559-1.015-2.49s0.364-1.824 1.015-2.49c0.663-0.655 1.558-1.022 2.49-1.022s1.826 0.367 2.49 1.022c0.077 0.078 0.169 0.14 0.27 0.182s0.21 0.064 0.319 0.064c0.11 0 0.218-0.022 0.319-0.064s0.193-0.104 0.27-0.182c0.663-0.655 1.558-1.022 2.49-1.022s1.826 0.367 2.49 1.022c0.66 0.657 1.036 1.545 1.049 2.476s-0.34 1.829-0.982 2.503v0.025z"></path>
</symbol>

<symbol id="akcii" viewBox="0 0 32 32">
<path fill="#ffbc57" style="fill: var(--color1, #ffbc57)" d="M29.333 12.855c0.133-0.667-0.4-1.467-1.067-1.467l-7.6-1.067-3.467-6.933c-0.133-0.267-0.267-0.4-0.533-0.533-0.667-0.4-1.467-0.133-1.867 0.533l-3.333 6.933-7.6 1.067c-0.4 0-0.667 0.133-0.8 0.4-0.533 0.533-0.533 1.333 0 1.867l5.467 5.333-1.333 7.6c0 0.267 0 0.533 0.133 0.8 0.4 0.667 1.2 0.933 1.867 0.533l6.8-3.6 6.8 3.6c0.133 0.133 0.4 0.133 0.667 0.133 0.133 0 0.133 0 0.267 0 0.667-0.133 1.2-0.8 1.067-1.6l-1.333-7.6 5.467-5.333c0.267-0.133 0.4-0.4 0.4-0.667z"></path>
</symbol>

<symbol id="credit" viewBox="0 0 32 32">
<path fill="#ffbc57" style="fill: var(--color1, #ffbc57)" d="M16 2.667c-7.333 0-13.333 6-13.333 13.333s6 13.333 13.333 13.333c7.333 0 13.333-6 13.333-13.333s-6-13.333-13.333-13.333zM16 5.333c5.333 0 9.867 4 10.533 9.333h-10.533v-9.333zM21.333 25.2l-4.533-7.867h9.867c-0.533 3.333-2.4 6.267-5.333 7.867z"></path>
</symbol>

<symbol id="sale" viewBox="0 0 32 32">
<path fill="#ffbc57" style="fill: var(--color1, #ffbc57)" d="M27.319 4.681c-6.242-6.241-16.396-6.241-22.638 0s-6.241 16.396 0 22.638c3.121 3.121 7.22 4.681 11.319 4.681s8.198-1.561 11.319-4.681c6.241-6.241 6.241-16.396 0-22.638zM10.305 7.53c0.591-0.591 1.378-0.917 2.215-0.917s1.624 0.326 2.216 0.918c0.591 0.591 0.917 1.378 0.917 2.214s-0.326 1.623-0.918 2.215c-0.591 0.592-1.378 0.917-2.215 0.917s-1.623-0.326-2.215-0.917c-0.592-0.592-0.918-1.378-0.918-2.215s0.326-1.623 0.918-2.215zM10.831 22.645c-0.204 0.204-0.471 0.306-0.738 0.306s-0.534-0.102-0.738-0.306c-0.408-0.407-0.408-1.069-0-1.477l11.814-11.814c0.408-0.408 1.069-0.408 1.477 0s0.408 1.069 0 1.477l-11.814 11.814zM22.391 23.784c-0.591 0.591-1.378 0.917-2.215 0.917s-1.624-0.326-2.215-0.918c-0.591-0.591-0.917-1.378-0.917-2.215s0.326-1.623 0.918-2.215c0.591-0.591 1.378-0.917 2.215-0.917s1.624 0.326 2.215 0.918c0.591 0.591 0.917 1.378 0.917 2.214s-0.326 1.623-0.918 2.215z"></path>
</symbol>


<symbol id="arrow" viewBox="0 0 32 32">
<path fill="none" stroke="#ffbc57" style="stroke: var(--color1, #ffbc57)" stroke-linejoin="miter" stroke-linecap="butt" stroke-miterlimit="4" stroke-width="1.28" d="M31.36 16c0 8.483-6.877 15.36-15.36 15.36s-15.36-6.877-15.36-15.36c0-8.483 6.877-15.36 15.36-15.36s15.36 6.877 15.36 15.36z"></path>
<path fill="#ffbc57" style="fill: var(--color1, #ffbc57)" d="M19.158 12.697c-0.058-0.14-0.169-0.251-0.309-0.309-0.069-0.029-0.143-0.045-0.217-0.046h-5.714c-0.152 0-0.297 0.060-0.404 0.167s-0.167 0.252-0.167 0.404 0.060 0.297 0.167 0.404c0.107 0.107 0.252 0.167 0.404 0.167h4.337l-4.743 4.737c-0.054 0.053-0.096 0.116-0.125 0.186s-0.044 0.144-0.044 0.22 0.015 0.15 0.044 0.22c0.029 0.070 0.072 0.133 0.125 0.186s0.116 0.096 0.186 0.125c0.070 0.029 0.144 0.044 0.22 0.044s0.15-0.015 0.22-0.044c0.070-0.029 0.133-0.072 0.186-0.125l4.737-4.743v4.337c0 0.152 0.060 0.297 0.167 0.404s0.253 0.167 0.404 0.167 0.297-0.060 0.404-0.167c0.107-0.107 0.167-0.252 0.167-0.404v-5.714c-0.001-0.075-0.016-0.148-0.046-0.217z"></path>
</symbol>

<symbol id="arrow-1" viewBox="0 0 32 32">
<path fill="#ffbc57" style="fill: var(--color1, #ffbc57)" d="M23.893 8.827c-0.135-0.326-0.394-0.585-0.72-0.72-0.16-0.068-0.332-0.105-0.507-0.107h-13.333c-0.354 0-0.693 0.14-0.943 0.391s-0.391 0.589-0.391 0.943c0 0.354 0.14 0.693 0.391 0.943s0.589 0.391 0.943 0.391h10.12l-11.067 11.053c-0.125 0.124-0.224 0.271-0.292 0.434s-0.103 0.337-0.103 0.513 0.035 0.35 0.103 0.513c0.068 0.162 0.167 0.31 0.292 0.434 0.124 0.125 0.271 0.224 0.434 0.292s0.337 0.103 0.513 0.103c0.176 0 0.35-0.035 0.513-0.103s0.31-0.167 0.434-0.292l11.053-11.067v10.12c0 0.354 0.141 0.693 0.391 0.943s0.589 0.391 0.943 0.391c0.354 0 0.693-0.141 0.943-0.391s0.391-0.589 0.391-0.943v-13.333c-0.002-0.174-0.038-0.346-0.107-0.507z"></path>
</symbol>

<symbol id="menu" viewBox="0 0 32 32">
<path fill="#535353" style="fill: var(--color2, #535353)" d="M26.667 14.667h-21.333c-0.8 0-1.333 0.533-1.333 1.333s0.533 1.333 1.333 1.333h21.333c0.8 0 1.333-0.533 1.333-1.333s-0.533-1.333-1.333-1.333zM5.333 10.667h21.333c0.8 0 1.333-0.533 1.333-1.333s-0.533-1.333-1.333-1.333h-21.333c-0.8 0-1.333 0.533-1.333 1.333s0.533 1.333 1.333 1.333zM26.667 21.333h-21.333c-0.8 0-1.333 0.533-1.333 1.333s0.533 1.333 1.333 1.333h21.333c0.8 0 1.333-0.533 1.333-1.333s-0.533-1.333-1.333-1.333z"></path>
</symbol>

<symbol id="check" viewBox="0 0 32 32">
<path fill="#82b09d" style="fill: var(--color1, #82b09d)" d="M19.627 11.72l-5.72 5.733-2.2-2.2c-0.12-0.14-0.267-0.253-0.432-0.333s-0.346-0.125-0.529-0.132c-0.184-0.007-0.367 0.024-0.538 0.091s-0.326 0.169-0.456 0.299c-0.13 0.13-0.232 0.285-0.299 0.457s-0.098 0.354-0.091 0.538c0.007 0.184 0.052 0.364 0.132 0.529s0.193 0.313 0.333 0.432l3.133 3.147c0.125 0.124 0.272 0.221 0.435 0.288s0.336 0.1 0.512 0.099c0.35-0.001 0.685-0.14 0.933-0.387l6.667-6.667c0.125-0.124 0.224-0.271 0.292-0.434s0.103-0.337 0.103-0.513-0.035-0.35-0.103-0.513c-0.068-0.162-0.167-0.31-0.292-0.434-0.25-0.248-0.588-0.388-0.94-0.388s-0.69 0.139-0.94 0.388zM16 2.667c-2.637 0-5.215 0.782-7.408 2.247s-3.902 3.547-4.911 5.984c-1.009 2.436-1.273 5.117-0.759 7.704s1.784 4.962 3.649 6.827c1.865 1.865 4.24 3.135 6.827 3.649s5.267 0.25 7.704-0.759c2.436-1.009 4.519-2.718 5.984-4.911s2.247-4.771 2.247-7.408c0-1.751-0.345-3.485-1.015-5.102s-1.652-3.088-2.89-4.326c-1.238-1.238-2.708-2.22-4.326-2.89s-3.351-1.015-5.102-1.015zM16 26.667c-2.11 0-4.172-0.626-5.926-1.798s-3.121-2.838-3.929-4.787-1.019-4.094-0.607-6.163c0.412-2.069 1.427-3.97 2.919-5.462s3.392-2.508 5.462-2.919c2.069-0.412 4.214-0.2 6.163 0.607s3.615 2.175 4.787 3.929c1.172 1.754 1.798 3.816 1.798 5.926 0 2.829-1.124 5.542-3.124 7.543s-4.714 3.124-7.543 3.124z"></path>
</symbol>

<symbol id="korzina" viewBox="0 0 32 32">
<path fill="#ffbc57" style="fill: var(--color2, #ffbc57)" d="M32 16c0 8.837-7.163 16-16 16s-16-7.163-16-16c0-8.837 7.163-16 16-16s16 7.163 16 16z"></path>
<path fill="#fff" style="fill: var(--color3, #fff)" d="M17.918 21.13c0.213 0 0.417-0.084 0.568-0.234s0.235-0.352 0.235-0.564v-1.595c0-0.212-0.085-0.414-0.235-0.564s-0.355-0.234-0.568-0.234-0.417 0.084-0.568 0.234c-0.151 0.149-0.235 0.352-0.235 0.564v1.595c0 0.211 0.085 0.414 0.235 0.564s0.355 0.234 0.568 0.234zM14.707 21.13c0.213 0 0.417-0.084 0.568-0.234s0.235-0.352 0.235-0.564v-1.595c0-0.212-0.085-0.414-0.235-0.564s-0.355-0.234-0.568-0.234c-0.213 0-0.417 0.084-0.568 0.234s-0.235 0.352-0.235 0.564v1.595c0 0.211 0.085 0.414 0.235 0.564s0.355 0.234 0.568 0.234zM21.932 11.562h-1.108l-1.389-2.751c-0.042-0.101-0.105-0.193-0.185-0.269s-0.174-0.135-0.278-0.173c-0.104-0.038-0.214-0.054-0.324-0.048s-0.218 0.035-0.316 0.084c-0.099 0.050-0.186 0.119-0.256 0.203s-0.122 0.182-0.153 0.288c-0.031 0.105-0.039 0.216-0.024 0.325s0.051 0.213 0.108 0.307l1.020 2.033h-5.428l1.020-2.033c0.078-0.186 0.082-0.394 0.012-0.583s-0.21-0.344-0.391-0.435c-0.181-0.091-0.39-0.11-0.585-0.055s-0.361 0.183-0.466 0.355l-1.389 2.751h-1.108c-0.568 0.008-1.114 0.216-1.542 0.585s-0.712 0.877-0.8 1.434 0.024 1.127 0.318 1.609c0.293 0.482 0.749 0.847 1.286 1.028l0.594 5.948c0.060 0.592 0.34 1.141 0.785 1.539s1.024 0.617 1.623 0.614h6.728c0.599 0.003 1.178-0.216 1.623-0.614s0.725-0.947 0.785-1.539l0.594-5.948c0.538-0.182 0.995-0.547 1.288-1.031s0.405-1.056 0.314-1.613c-0.090-0.558-0.377-1.066-0.808-1.434s-0.98-0.573-1.549-0.578zM20.479 22.008c-0.020 0.197-0.113 0.38-0.262 0.513s-0.341 0.206-0.541 0.205h-6.728c-0.2 0.001-0.393-0.072-0.541-0.205s-0.242-0.316-0.262-0.513l-0.57-5.661h9.474l-0.57 5.661zM21.932 14.751h-11.24c-0.213 0-0.417-0.084-0.568-0.234s-0.235-0.352-0.235-0.564 0.085-0.414 0.235-0.564c0.151-0.15 0.355-0.234 0.568-0.234h11.24c0.213 0 0.417 0.084 0.568 0.234s0.235 0.352 0.235 0.564-0.085 0.414-0.235 0.564c-0.151 0.149-0.355 0.234-0.568 0.234z"></path>
</symbol>

<symbol id="obrane" viewBox="0 0 32 32">
<path fill="#f8f8f8" style="fill: var(--color4, #f8f8f8)" d="M32 16c0 8.837-7.163 16-16 16s-16-7.163-16-16c0-8.837 7.163-16 16-16s16 7.163 16 16z"></path>
<path fill="#b1b1b1" style="fill: var(--color5, #b1b1b1)" d="M22.76 10.519c-0.88-0.882-2.046-1.42-3.288-1.518s-2.478 0.253-3.484 0.987c-1.056-0.785-2.37-1.142-3.678-0.997s-2.512 0.78-3.371 1.777c-0.858 0.997-1.307 2.283-1.256 3.598s0.599 2.562 1.533 3.489l5.154 5.162c0.432 0.425 1.013 0.663 1.618 0.663s1.187-0.238 1.618-0.663l5.154-5.162c0.969-0.975 1.513-2.293 1.513-3.668s-0.544-2.693-1.513-3.668zM21.59 16.71l-5.153 5.154c-0.059 0.059-0.128 0.106-0.205 0.138s-0.159 0.049-0.243 0.049c-0.083 0-0.166-0.017-0.243-0.049s-0.147-0.079-0.205-0.138l-5.154-5.178c-0.651-0.665-1.015-1.559-1.015-2.49s0.364-1.824 1.015-2.49c0.663-0.655 1.558-1.022 2.49-1.022s1.826 0.367 2.49 1.022c0.077 0.078 0.169 0.14 0.27 0.182s0.21 0.064 0.319 0.064c0.11 0 0.218-0.022 0.319-0.064s0.193-0.104 0.27-0.182c0.663-0.655 1.558-1.022 2.49-1.022s1.826 0.367 2.49 1.022c0.66 0.657 1.036 1.545 1.049 2.476s-0.34 1.829-0.982 2.503v0.025z"></path>
</symbol>

<symbol id="chat" viewBox="0 0 32 32">
<path fill="#535353" style="fill: var(--color1, #535353)" d="M16 2.667c-1.751 0-3.485 0.345-5.102 1.015s-3.088 1.652-4.326 2.89c-2.5 2.501-3.905 5.892-3.905 9.428-0.012 3.079 1.054 6.065 3.013 8.44l-2.667 2.667c-0.185 0.187-0.31 0.426-0.36 0.684s-0.022 0.526 0.080 0.769c0.111 0.24 0.29 0.441 0.516 0.579s0.487 0.205 0.751 0.194h12c3.536 0 6.928-1.405 9.428-3.905s3.905-5.892 3.905-9.428c0-3.536-1.405-6.928-3.905-9.428s-5.892-3.905-9.428-3.905zM16 26.667h-8.787l1.24-1.24c0.248-0.25 0.388-0.588 0.388-0.94s-0.139-0.69-0.388-0.94c-1.746-1.744-2.833-4.039-3.076-6.495s0.372-4.92 1.742-6.972 3.409-3.567 5.77-4.285c2.361-0.718 4.898-0.595 7.178 0.348s4.164 2.647 5.328 4.823c1.165 2.175 1.539 4.687 1.060 7.108s-1.784 4.6-3.69 6.167c-1.906 1.567-4.297 2.424-6.765 2.426z"></path>
</symbol>

<symbol id="add" viewBox="0 0 33 32">
<path fill="#fff" style="fill: var(--color2, #fff)" d="M29.613 6.293l-3.24-3.24c-0.25-0.248-0.588-0.388-0.94-0.388s-0.69 0.139-0.94 0.388l-7.44 7.44c-0.124 0.125-0.221 0.272-0.288 0.435s-0.1 0.336-0.099 0.512v3.227c0 0.354 0.141 0.693 0.391 0.943s0.589 0.391 0.943 0.391h3.227c0.175 0.001 0.349-0.033 0.512-0.099s0.31-0.164 0.435-0.288l7.44-7.44c0.248-0.25 0.388-0.588 0.388-0.94s-0.139-0.69-0.388-0.94zM20.667 13.333h-1.333v-1.333l6.107-6.107 1.333 1.333-6.107 6.107zM26 16c-0.354 0-0.693 0.141-0.943 0.391s-0.391 0.589-0.391 0.943c0 2.475-0.983 4.849-2.734 6.6s-4.124 2.734-6.6 2.734h-7.453l0.853-0.84c0.125-0.124 0.224-0.271 0.292-0.434s0.103-0.337 0.103-0.513c0-0.176-0.035-0.35-0.103-0.513s-0.167-0.31-0.292-0.434c-1.305-1.305-2.194-2.968-2.555-4.779s-0.175-3.687 0.531-5.393c0.706-1.706 1.903-3.163 3.438-4.189s3.34-1.573 5.186-1.573c0.354 0 0.693-0.14 0.943-0.391s0.391-0.589 0.391-0.943c0-0.354-0.141-0.693-0.391-0.943s-0.589-0.391-0.943-0.391c-2.257 0.007-4.466 0.651-6.373 1.857s-3.436 2.925-4.411 4.961c-0.975 2.035-1.355 4.304-1.099 6.546s1.14 4.366 2.549 6.129l-2.28 2.227c-0.185 0.187-0.31 0.426-0.36 0.684s-0.022 0.526 0.080 0.769c0.1 0.243 0.27 0.452 0.488 0.599s0.475 0.226 0.738 0.228h10.667c1.576 0 3.136-0.31 4.592-0.913s2.779-1.487 3.893-2.601c1.114-1.114 1.998-2.437 2.601-3.893s0.913-3.016 0.913-4.592c0-0.354-0.141-0.693-0.391-0.943s-0.589-0.391-0.943-0.391z"></path>
</symbol>

<symbol id="ava" viewBox="0 0 32 32">
<path fill="#fff" style="fill: var(--color2, #fff)" d="M32 16c0 8.837-7.163 16-16 16s-16-7.163-16-16c0-8.837 7.163-16 16-16s16 7.163 16 16z"></path>
<path fill="#ffbc57" style="fill: var(--color3, #ffbc57)" d="M6.806 14.048v8.154c0 0.222-0.149 0.371-0.372 0.371h-1.49c-0.223 0-0.372-0.148-0.372-0.371v-8.154c0-0.222 0.149-0.371 0.372-0.371h1.49c0.223 0 0.372 0.185 0.372 0.371zM27.056 13.677h-1.49c-0.223 0-0.372 0.148-0.372 0.371v8.154c0 0.222 0.149 0.371 0.372 0.371h1.49c0.223 0 0.372-0.148 0.372-0.371v-8.154c0-0.185-0.149-0.371-0.372-0.371z"></path>
<path fill="#ffbc57" style="fill: var(--color3, #ffbc57)" d="M24.449 16.272v2.224c0 0.222-0.149 0.371-0.372 0.371h-16.153c-0.223 0-0.372-0.148-0.372-0.371v-2.224c0-0.222 0.149-0.371 0.372-0.371h16.153c0.223 0 0.372 0.148 0.372 0.371zM7.923 15.16h4.391c0.223 0 0.372-0.148 0.372-0.371v-4.819c0-0.222-0.149-0.371-0.372-0.371h-4.391c-0.223 0-0.372 0.148-0.372 0.371v4.819c0 0.222 0.149 0.371 0.372 0.371zM13.804 15.16h4.391c0.223 0 0.372-0.148 0.372-0.371v-4.819c0-0.222-0.149-0.371-0.372-0.371h-4.391c-0.223 0-0.372 0.148-0.372 0.371v4.819c0 0.222 0.149 0.371 0.372 0.371zM24.077 9.6h-4.391c-0.223 0-0.372 0.148-0.372 0.371v4.819c0 0.222 0.149 0.371 0.372 0.371h4.391c0.223 0 0.372-0.148 0.372-0.371v-4.819c0-0.222-0.149-0.371-0.372-0.371zM24.077 19.608h-16.153c-0.223 0-0.372 0.148-0.372 0.371v2.224c0 0.222 0.149 0.371 0.372 0.371h2.156c0.223 0 0.372-0.148 0.372-0.371v-0.371h11.095v0.371c0 0.222 0.149 0.371 0.372 0.371h2.156c0.223 0 0.372-0.148 0.372-0.371v-2.224c0-0.222-0.149-0.371-0.372-0.371z"></path>
</symbol>

<symbol id="reload" viewBox="0 0 32 32">
<path fill="#fff" style="fill: var(--color2, #fff)" d="M26.547 20.68h-6.040c-0.354 0-0.693 0.141-0.943 0.391s-0.391 0.589-0.391 0.943c0 0.354 0.141 0.693 0.391 0.943s0.589 0.391 0.943 0.391h3.2c-1.471 1.537-3.367 2.599-5.446 3.050s-4.245 0.27-6.221-0.52c-1.975-0.79-3.669-2.152-4.864-3.912s-1.837-3.837-1.842-5.964c0-0.354-0.14-0.693-0.391-0.943s-0.589-0.391-0.943-0.391c-0.354 0-0.693 0.141-0.943 0.391s-0.391 0.589-0.391 0.943c0.007 2.604 0.776 5.148 2.213 7.32s3.477 3.875 5.871 4.9c2.393 1.025 5.035 1.327 7.598 0.869s4.936-1.657 6.825-3.449v2.36c0 0.354 0.141 0.693 0.391 0.943s0.589 0.391 0.943 0.391c0.354 0 0.693-0.141 0.943-0.391s0.391-0.589 0.391-0.943v-6c-0.003-0.345-0.14-0.674-0.381-0.92s-0.568-0.389-0.912-0.4zM16 2.667c-3.418 0.010-6.702 1.332-9.173 3.693v-2.36c0-0.354-0.14-0.693-0.391-0.943s-0.589-0.391-0.943-0.391c-0.354 0-0.693 0.14-0.943 0.391s-0.391 0.589-0.391 0.943v6c0 0.354 0.14 0.693 0.391 0.943s0.589 0.391 0.943 0.391h6c0.354 0 0.693-0.14 0.943-0.391s0.391-0.589 0.391-0.943c0-0.354-0.14-0.693-0.391-0.943s-0.589-0.391-0.943-0.391h-3.2c1.47-1.536 3.365-2.598 5.443-3.049s4.243-0.271 6.218 0.517c1.975 0.788 3.669 2.148 4.865 3.906s1.839 3.833 1.848 5.959c0 0.354 0.141 0.693 0.391 0.943s0.589 0.391 0.943 0.391c0.354 0 0.693-0.141 0.943-0.391s0.391-0.589 0.391-0.943c0-1.751-0.345-3.485-1.015-5.102s-1.652-3.088-2.89-4.326-2.708-2.22-4.326-2.89c-1.618-0.67-3.351-1.015-5.102-1.015z"></path>
</symbol>

<symbol id="star" viewBox="0 0 32 32">
<path fill="#f90" style="fill: var(--color1, #f90)" d="M29.333 13.467c0.133-0.667-0.4-1.467-1.067-1.467l-7.6-1.067-3.467-6.933c-0.133-0.267-0.267-0.4-0.533-0.533-0.667-0.4-1.467-0.133-1.867 0.533l-3.333 6.933-7.6 1.067c-0.4 0-0.667 0.133-0.8 0.4-0.533 0.533-0.533 1.333 0 1.867l5.467 5.333-1.333 7.6c0 0.267 0 0.533 0.133 0.8 0.4 0.667 1.2 0.933 1.867 0.533l6.8-3.6 6.8 3.6c0.133 0.133 0.4 0.133 0.667 0.133 0.133 0 0.133 0 0.267 0 0.667-0.133 1.2-0.8 1.067-1.6l-1.333-7.6 5.467-5.333c0.267-0.133 0.4-0.4 0.4-0.667z"></path>
</symbol>

<symbol id="avatar" viewBox="0 0 32 32">
<path fill="#fff" style="fill: var(--color1, #fff); stroke: var(--color2, #ffbc57)" stroke="#ffbc57" stroke-linejoin="miter" stroke-linecap="butt" stroke-miterlimit="4" stroke-width="0.64" d="M31.68 16c0 8.66-7.020 15.68-15.68 15.68s-15.68-7.020-15.68-15.68c0-8.66 7.020-15.68 15.68-15.68s15.68 7.020 15.68 15.68z"></path>
<path fill="#535353" style="fill: var(--color3, #535353)" d="M18.12 16.406c0.56-0.441 0.969-1.045 1.17-1.729s0.183-1.414-0.050-2.087-0.671-1.258-1.251-1.671c-0.581-0.413-1.276-0.636-1.989-0.636s-1.408 0.222-1.989 0.636c-0.581 0.413-1.018 0.998-1.251 1.671s-0.251 1.403-0.050 2.087c0.201 0.684 0.61 1.288 1.17 1.729-0.96 0.385-1.798 1.022-2.424 1.846s-1.017 1.801-1.131 2.829c-0.008 0.075-0.002 0.151 0.019 0.223s0.056 0.14 0.104 0.199c0.095 0.119 0.234 0.195 0.386 0.212s0.304-0.028 0.422-0.123c0.119-0.095 0.195-0.234 0.212-0.386 0.126-1.117 0.658-2.149 1.496-2.898s1.923-1.163 3.047-1.163c1.124 0 2.209 0.414 3.047 1.163s1.371 1.781 1.496 2.898c0.016 0.14 0.083 0.27 0.188 0.364s0.242 0.145 0.383 0.145h0.063c0.15-0.017 0.287-0.093 0.381-0.211s0.138-0.268 0.122-0.418c-0.115-1.031-0.507-2.011-1.137-2.835s-1.471-1.462-2.435-1.845zM16 16c-0.452 0-0.894-0.134-1.27-0.385s-0.669-0.608-0.842-1.026c-0.173-0.418-0.218-0.877-0.13-1.321s0.306-0.851 0.626-1.17c0.32-0.32 0.727-0.537 1.17-0.626s0.903-0.043 1.321 0.13 0.775 0.466 1.026 0.842c0.251 0.376 0.385 0.818 0.385 1.27 0 0.606-0.241 1.188-0.669 1.616s-1.010 0.669-1.616 0.669z"></path>
</symbol>


<symbol id="read" viewBox="0 0 32 32">
<path  d="M23.893 8.827c-0.135-0.326-0.394-0.585-0.72-0.72-0.16-0.068-0.332-0.105-0.507-0.107h-13.333c-0.354 0-0.693 0.14-0.943 0.391s-0.391 0.589-0.391 0.943c0 0.354 0.14 0.693 0.391 0.943s0.589 0.391 0.943 0.391h10.12l-11.067 11.053c-0.125 0.124-0.224 0.271-0.292 0.434s-0.103 0.337-0.103 0.513 0.035 0.35 0.103 0.513c0.068 0.162 0.167 0.31 0.292 0.434 0.124 0.125 0.271 0.224 0.434 0.292s0.337 0.103 0.513 0.103c0.176 0 0.35-0.035 0.513-0.103s0.31-0.167 0.434-0.292l11.053-11.067v10.12c0 0.354 0.141 0.693 0.391 0.943s0.589 0.391 0.943 0.391c0.354 0 0.693-0.141 0.943-0.391s0.391-0.589 0.391-0.943v-13.333c-0.002-0.174-0.038-0.346-0.107-0.507z"></path>
</symbol>

<symbol id="logo-footer" viewBox="0 0 160 32">
<path fill="#fff" style="fill: var(--color1, #fff)" d="M63.057 23.378h-2.325v-1.196h5.853v1.196h-2.325v5.902h-1.283v-5.902h0.080zM72.357 29.281h-4.249v-7.099h4.089v1.196h-2.886v1.755h2.566v1.196h-2.566v1.834h2.966v1.117h0.080zM78.531 22.182h1.443l-2.405 3.43 2.486 3.589h-1.444l-1.844-2.632-1.844 2.632h-1.443l2.486-3.589-2.405-3.43h1.443l1.764 2.552 1.764-2.552zM87.351 29.281h-1.283v-3.031h-3.208v3.031h-1.283v-7.099h1.283v2.872h3.288v-2.872h1.203v7.099zM89.196 25.771c0-1.037 0.321-1.914 1.042-2.632s1.604-1.037 2.646-1.037c1.042 0 1.924 0.319 2.646 1.037s1.042 1.595 1.042 2.632c0 1.037-0.321 1.914-1.042 2.632s-1.604 1.037-2.646 1.037c-1.043 0-1.924-0.319-2.646-1.037s-1.042-1.595-1.042-2.632zM90.478 25.771c0 0.718 0.241 1.276 0.641 1.755s1.043 0.718 1.684 0.718c0.722 0 1.283-0.239 1.764-0.718 0.401-0.479 0.642-1.037 0.642-1.755s-0.241-1.356-0.722-1.755c-0.481-0.479-1.043-0.718-1.684-0.718-0.721 0-1.283 0.239-1.684 0.718-0.401 0.399-0.641 1.037-0.641 1.755zM103.628 29.281h-1.203v-5.902h-2.084l-0.161 1.356c-0.080 0.798-0.16 1.515-0.321 2.074s-0.241 1.037-0.401 1.356c-0.161 0.319-0.321 0.638-0.561 0.798s-0.401 0.319-0.642 0.319c-0.24 0.080-0.481 0.080-0.801 0v-1.196c0.16 0 0.24 0 0.401 0 0.080 0 0.241-0.16 0.321-0.319 0.161-0.16 0.241-0.399 0.321-0.718 0.241-0.718 0.401-1.834 0.561-3.43l0.080-1.436h4.49v7.099zM105.472 25.771c0-1.037 0.321-1.914 1.042-2.632s1.604-1.037 2.646-1.037c1.042 0 1.924 0.319 2.646 1.037s1.043 1.595 1.043 2.632c0 1.037-0.321 1.914-1.043 2.632s-1.604 1.037-2.646 1.037c-1.043 0-1.924-0.319-2.646-1.037s-1.042-1.595-1.042-2.632zM106.835 25.771c0 0.718 0.241 1.276 0.642 1.755s1.042 0.718 1.684 0.718c0.721 0 1.283-0.239 1.764-0.718 0.401-0.479 0.641-1.037 0.641-1.755s-0.241-1.356-0.721-1.755c-0.481-0.479-1.043-0.718-1.684-0.718-0.722 0-1.283 0.239-1.684 0.718-0.481 0.399-0.642 1.037-0.642 1.755zM115.976 29.281h-1.283v-7.099h4.009v1.196h-2.726v5.902zM121.668 29.281h-1.283v-7.099h1.283v7.099zM123.512 20.985c0-0.16 0.080-0.319 0.161-0.479 0.16-0.080 0.321-0.16 0.481-0.16s0.321 0.080 0.481 0.16c0.161 0.080 0.161 0.239 0.161 0.479s-0.081 0.399-0.161 0.479c-0.080 0.080-0.241 0.16-0.481 0.16-0.16 0-0.321-0.080-0.481-0.16-0.081-0.16-0.161-0.319-0.161-0.479zM125.597 29.281h-1.283v-7.099h1.283v7.099zM125.196 20.985c0-0.16 0.080-0.319 0.16-0.479 0.161-0.080 0.321-0.16 0.481-0.16s0.321 0.080 0.481 0.16c0.16 0.16 0.16 0.239 0.16 0.479s-0.080 0.399-0.16 0.479c-0.080 0.16-0.241 0.16-0.481 0.16s-0.401-0.080-0.481-0.16c-0.080-0.16-0.16-0.319-0.16-0.479zM135.619 27.685l0.481 0.957c-0.241 0.239-0.561 0.399-0.962 0.558s-0.882 0.239-1.283 0.239c-1.123 0-2.004-0.319-2.646-1.037-0.641-0.638-1.043-1.515-1.043-2.632 0-1.037 0.321-1.914 0.963-2.632s1.523-1.037 2.646-1.037c0.882 0 1.604 0.239 2.165 0.718l-0.561 0.957c-0.481-0.319-1.043-0.479-1.604-0.479-0.641 0-1.203 0.239-1.684 0.638-0.401 0.479-0.641 1.037-0.641 1.835 0 0.718 0.241 1.356 0.641 1.834 0.481 0.479 1.043 0.718 1.764 0.718 0.722-0.080 1.283-0.239 1.764-0.638zM143.477 29.281h-1.203v-3.031h-3.288v3.031h-1.283v-7.099h1.283v2.872h3.288v-2.872h1.203v7.099zM150.453 22.182h1.283l-2.405 5.424c-0.241 0.558-0.561 0.957-0.802 1.276-0.321 0.239-0.641 0.399-1.123 0.399s-0.722-0.080-0.963-0.319l0.401-1.037c0.16 0.080 0.321 0.16 0.561 0.16 0.321 0 0.561-0.16 0.721-0.479l0.081-0.239-3.127-5.185h1.443l2.325 3.988 1.604-3.988z"></path>
<path fill="#fff" style="fill: var(--color1, #fff)" d="M59.293 10.058l6.896 8.375h-4.41l-5.532-6.939v6.939h-3.448v-15.713h3.448v6.381l5.292-6.381h4.25l-6.495 7.338zM129.61 5.99h4.811v12.443h3.448v-12.443h4.811v-3.27h-13.149v3.27h0.080zM76.131 12.131l4.891 6.301h-4.17l-4.089-5.583h-1.283v5.583h-3.448v-15.713h0.401c0.721 0 1.523 0 2.405 0s1.604 0 2.165 0c4.811 0 5.853 2.712 5.853 5.025 0 1.196-0.321 2.233-0.962 3.031-0.561 0.558-1.123 1.037-1.764 1.356zM71.881 5.99c-0.161 0-0.241 0-0.401 0v3.589h1.283c0.722 0 1.363-0.159 1.844-0.558 0.401-0.319 0.642-0.798 0.642-1.356 0-0.798-0.241-1.755-2.406-1.755-0.080 0-0.16 0-0.321 0-0.16 0.080-0.401 0.080-0.641 0.080zM124.078 2.719l6.655 15.713h-3.688l-1.523-3.829h-5.853l-1.524 3.829h-3.528l6.575-15.713h2.886zM122.555 7.505l-1.604 3.829h3.207l-1.603-3.829zM159.678 10.616c0 2.313-0.802 4.307-2.325 5.823s-3.528 2.313-5.853 2.313-4.33-0.718-5.853-2.233c-1.524-1.516-2.325-3.43-2.325-5.823 0-2.233 0.801-4.227 2.325-5.743s3.528-2.313 5.853-2.313 4.33 0.718 5.853 2.233c1.523 1.356 2.325 3.35 2.325 5.743zM154.867 14.046c0.882-0.957 1.283-2.074 1.283-3.51s-0.401-2.552-1.363-3.51c-0.882-0.877-2.004-1.356-3.288-1.356-1.363 0-2.405 0.479-3.287 1.356s-1.283 2.074-1.283 3.51c0 1.436 0.401 2.552 1.283 3.43 0.882 0.957 1.924 1.356 3.287 1.356 1.443 0.080 2.486-0.319 3.368-1.276zM112.692 2.719l-4.009 10.369-4.17-10.369h-3.688l6.495 15.713h2.566l6.334-15.713h-3.528z"></path>
<path fill="#00b5ff" style="fill: var(--color2, #00b5ff)" d="M97.985 4.156c-0.964-0.958-2.251-1.517-3.617-1.517s-2.652 0.559-3.617 1.517l-0.241 0.239-0.322-0.319c-0.964-0.958-2.25-1.517-3.617-1.517s-2.653 0.559-3.617 1.517-1.528 2.235-1.528 3.592c0 1.357 0.563 2.634 1.528 3.592l6.993 6.944c0.161 0.16 0.321 0.239 0.563 0.239s0.402-0.080 0.563-0.239l6.993-6.944c0.964-0.958 1.527-2.235 1.527-3.592s-0.563-2.554-1.608-3.512z"></path>
<path fill="#ffbc00" style="fill: var(--color3, #ffbc00)" d="M80.828 9.167h19.243v9.654h-19.243v-9.654z"></path>
<path fill="#ffbc57" style="fill: var(--color4, #ffbc57)" d="M4.63 11.776v16.896c0 0.461-0.309 0.768-0.772 0.768h-3.087c-0.463 0-0.772-0.307-0.772-0.768v-16.896c0-0.461 0.309-0.768 0.772-0.768h3.087c0.463 0 0.772 0.384 0.772 0.768zM46.588 11.008h-3.087c-0.463 0-0.772 0.307-0.772 0.768v16.896c0 0.461 0.309 0.768 0.772 0.768h3.087c0.463 0 0.772-0.307 0.772-0.768v-16.896c0-0.384-0.309-0.768-0.772-0.768z"></path>
<path fill="#ffbc57" style="fill: var(--color4, #ffbc57)" d="M41.186 16.384v4.608c0 0.461-0.309 0.768-0.772 0.768h-33.469c-0.463 0-0.772-0.307-0.772-0.768v-4.608c0-0.461 0.309-0.768 0.772-0.768h33.469c0.463 0 0.772 0.307 0.772 0.768zM6.945 14.080h9.098c0.463 0 0.772-0.307 0.772-0.768v-9.984c0-0.461-0.309-0.768-0.772-0.768h-9.098c-0.463 0-0.772 0.307-0.772 0.768v9.984c0 0.461 0.309 0.768 0.772 0.768zM19.131 14.080h9.099c0.463 0 0.772-0.307 0.772-0.768v-9.984c0-0.461-0.309-0.768-0.772-0.768h-9.099c-0.463 0-0.772 0.307-0.772 0.768v9.984c0 0.461 0.309 0.768 0.772 0.768zM40.415 2.56h-9.099c-0.463 0-0.772 0.307-0.772 0.768v9.984c0 0.461 0.309 0.768 0.772 0.768h9.099c0.463 0 0.772-0.307 0.772-0.768v-9.984c0-0.461-0.309-0.768-0.772-0.768zM40.415 23.296h-33.469c-0.463 0-0.772 0.307-0.772 0.768v4.608c0 0.461 0.309 0.768 0.772 0.768h4.468c0.463 0 0.772-0.307 0.772-0.768v-0.768h22.989v0.768c0 0.461 0.309 0.768 0.772 0.768h4.468c0.463 0 0.772-0.307 0.772-0.768v-4.608c0-0.461-0.309-0.768-0.772-0.768z"></path>
</symbol>


<symbol id="select" viewBox="0 0 33 32">
<path fill="#fff" style="fill: var(--color1, #fff)" d="M17.613 12.227l5.653 5.653c0.125 0.124 0.224 0.271 0.292 0.434s0.103 0.337 0.103 0.513-0.035 0.35-0.103 0.513c-0.068 0.162-0.167 0.31-0.292 0.434-0.25 0.248-0.588 0.388-0.94 0.388s-0.69-0.139-0.94-0.388l-4.72-4.72-4.72 4.72c-0.25 0.248-0.588 0.388-0.94 0.388s-0.69-0.139-0.94-0.388c-0.124-0.125-0.221-0.272-0.288-0.435s-0.1-0.336-0.099-0.512c-0.001-0.175 0.033-0.349 0.099-0.512s0.164-0.31 0.288-0.435l5.653-5.653c0.124-0.125 0.271-0.224 0.434-0.292s0.337-0.103 0.513-0.103c0.176 0 0.35 0.035 0.513 0.103s0.31 0.167 0.434 0.292z"></path>
</symbol>

<symbol id="facebook" viewBox="0 0 32 32">
<path fill="#fff" style="fill: var(--color1, #fff)" d="M28.8 16c0 7.069-5.731 12.8-12.8 12.8s-12.8-5.731-12.8-12.8c0-7.069 5.731-12.8 12.8-12.8s12.8 5.731 12.8 12.8z"></path>
<path fill="#1778d0" style="fill: var(--color2, #1778d0)" d="M16 0c-8.832 0-16 7.168-16 16s7.168 16 16 16c8.832 0 16-7.168 16-16s-7.168-16-16-16zM20.352 9.728h-2.176c-0.384 0-0.896 0.512-0.896 0.768v2.304h3.072c-0.128 1.664-0.384 3.328-0.384 3.328h-2.688v9.728h-4.096v-9.728h-1.92v-3.328h1.92v-2.688c0-0.512-0.128-3.712 4.096-3.712h2.944v3.328h0.128z"></path>
</symbol>

<symbol id="instagram" viewBox="0 0 32 32">
<path fill="#fff" style="fill: var(--color1, #fff)" d="M29.6 16c0 7.511-6.089 13.6-13.6 13.6s-13.6-6.089-13.6-13.6c0-7.511 6.089-13.6 13.6-13.6s13.6 6.089 13.6 13.6z"></path>
<path fill="#af24d1" style="fill: var(--color3, #af24d1)" d="M22.144 9.088c0.256 0.256 0.384 0.64 0.384 1.024s-0.128 0.768-0.384 1.024c-0.256 0.128-0.64 0.384-0.896 0.384-0.384 0-0.768-0.128-1.024-0.384s-0.384-0.64-0.384-1.024c0-0.384 0.128-0.768 0.384-1.024s0.64-0.384 1.024-0.384c0.256 0 0.64 0.128 0.896 0.384zM16 11.008c-2.816 0-4.992 2.304-4.992 4.992s2.304 4.992 4.992 4.992c2.816 0 4.992-2.304 4.992-4.992s-2.176-4.992-4.992-4.992zM32 16c0 8.832-7.168 16-16 16s-16-7.168-16-16c0-8.832 7.168-16 16-16s16 7.168 16 16zM25.472 13.056c0-1.792-0.64-3.328-1.92-4.608s-2.816-1.92-4.608-1.92h-6.016c-1.792 0-3.328 0.64-4.608 1.92s-1.92 2.816-1.92 4.608v6.016c0 1.792 0.64 3.328 1.92 4.608s2.816 1.92 4.608 1.92h6.016c1.792 0 3.328-0.64 4.608-1.92s1.92-2.816 1.92-4.608v-6.016z"></path>
</symbol>

<symbol id="address" viewBox="0 0 32 32">
<path fill="none" opacity="0.2" stroke="#b1b1b1" style="stroke: var(--color1, #b1b1b1)" stroke-linejoin="miter" stroke-linecap="butt" stroke-miterlimit="4" stroke-width="1.28" d="M31.36 16c0 8.483-6.877 15.36-15.36 15.36s-15.36-6.877-15.36-15.36c0-8.483 6.877-15.36 15.36-15.36s15.36 6.877 15.36 15.36z"></path>
<path fill="#b1b1b1" style="fill: var(--color1, #b1b1b1)" d="M15.872 8.96c-1.494 0-2.926 0.593-3.982 1.65s-1.65 2.489-1.65 3.982c0 3.802 4.963 8.096 5.174 8.279 0.127 0.109 0.29 0.169 0.458 0.169s0.33-0.060 0.458-0.169c0.246-0.183 5.174-4.477 5.174-8.279 0-1.494-0.593-2.926-1.65-3.982s-2.489-1.65-3.982-1.65zM15.872 21.386c-1.5-1.408-4.224-4.442-4.224-6.794 0-1.12 0.445-2.195 1.237-2.987s1.867-1.237 2.987-1.237c1.12 0 2.195 0.445 2.987 1.237s1.237 1.867 1.237 2.987c0 2.351-2.724 5.393-4.224 6.794zM15.872 11.776c-0.557 0-1.101 0.165-1.564 0.475s-0.824 0.749-1.037 1.264-0.269 1.081-0.16 1.627c0.109 0.546 0.377 1.048 0.771 1.442s0.896 0.662 1.442 0.771 1.112 0.053 1.627-0.16c0.515-0.213 0.954-0.574 1.264-1.037s0.475-1.008 0.475-1.564c0-0.747-0.297-1.463-0.825-1.991s-1.244-0.825-1.991-0.825zM15.872 16c-0.278 0-0.551-0.083-0.782-0.237s-0.412-0.375-0.519-0.632c-0.107-0.257-0.134-0.54-0.080-0.813s0.188-0.524 0.385-0.721c0.197-0.197 0.448-0.331 0.721-0.385s0.556-0.027 0.813 0.080c0.257 0.107 0.477 0.287 0.632 0.519s0.237 0.504 0.237 0.782c0 0.373-0.148 0.732-0.412 0.996s-0.622 0.412-0.996 0.412z"></path>
</symbol>

<symbol id="calendar" viewBox="0 0 32 32">
<path fill="none" opacity="0.2" stroke="#b1b1b1" style="stroke: var(--color1, #b1b1b1)" stroke-linejoin="miter" stroke-linecap="butt" stroke-miterlimit="4" stroke-width="1.28" d="M31.36 16c0 8.483-6.877 15.36-15.36 15.36s-15.36-6.877-15.36-15.36c0-8.483 6.877-15.36 15.36-15.36s15.36 6.877 15.36 15.36z"></path>
<path fill="#b1b1b1" style="fill: var(--color1, #b1b1b1)" d="M20.928 10.368h-1.408v-0.704c0-0.187-0.074-0.366-0.206-0.498s-0.311-0.206-0.498-0.206c-0.187 0-0.366 0.074-0.498 0.206s-0.206 0.311-0.206 0.498v0.704h-4.224v-0.704c0-0.187-0.074-0.366-0.206-0.498s-0.311-0.206-0.498-0.206c-0.187 0-0.366 0.074-0.498 0.206s-0.206 0.311-0.206 0.498v0.704h-1.408c-0.56 0-1.097 0.223-1.493 0.619s-0.619 0.933-0.619 1.493v8.448c0 0.56 0.223 1.097 0.619 1.493s0.933 0.619 1.493 0.619h9.856c0.56 0 1.097-0.223 1.493-0.619s0.619-0.933 0.619-1.493v-8.448c0-0.56-0.223-1.097-0.619-1.493s-0.933-0.619-1.493-0.619zM21.632 20.928c0 0.187-0.074 0.366-0.206 0.498s-0.311 0.206-0.498 0.206h-9.856c-0.187 0-0.366-0.074-0.498-0.206s-0.206-0.311-0.206-0.498v-4.928h11.264v4.928zM21.632 14.592h-11.264v-2.112c0-0.187 0.074-0.366 0.206-0.498s0.311-0.206 0.498-0.206h1.408v0.704c0 0.187 0.074 0.366 0.206 0.498s0.311 0.206 0.498 0.206c0.187 0 0.366-0.074 0.498-0.206s0.206-0.311 0.206-0.498v-0.704h4.224v0.704c0 0.187 0.074 0.366 0.206 0.498s0.311 0.206 0.498 0.206c0.187 0 0.366-0.074 0.498-0.206s0.206-0.311 0.206-0.498v-0.704h1.408c0.187 0 0.366 0.074 0.498 0.206s0.206 0.311 0.206 0.498v2.112z"></path>
</symbol>


<symbol id="tel-footer" viewBox="0 0 32 32">
<path fill="none" opacity="0.2" stroke="#b1b1b1" style="stroke: var(--color1, #b1b1b1)" stroke-linejoin="miter" stroke-linecap="butt" stroke-miterlimit="4" stroke-width="1.28" d="M31.36 16c0 8.483-6.877 15.36-15.36 15.36s-15.36-6.877-15.36-15.36c0-8.483 6.877-15.36 15.36-15.36s15.36 6.877 15.36 15.36z"></path>
<path fill="#b1b1b1" style="fill: var(--color1, #b1b1b1)" d="M20.101 16.64c-0.141 0-0.288-0.045-0.429-0.077-0.285-0.064-0.565-0.147-0.838-0.25-0.297-0.108-0.623-0.102-0.916 0.016s-0.532 0.34-0.671 0.624l-0.141 0.294c-0.622-0.352-1.196-0.783-1.709-1.28-0.497-0.513-0.928-1.087-1.28-1.709l0.294-0.134c0.284-0.139 0.506-0.378 0.624-0.671s0.124-0.619 0.016-0.916c-0.102-0.276-0.185-0.558-0.25-0.845-0.032-0.141-0.058-0.288-0.077-0.429-0.078-0.451-0.314-0.859-0.666-1.151s-0.797-0.449-1.254-0.442h-1.926c-0.271-0-0.538 0.056-0.785 0.167s-0.468 0.272-0.648 0.473c-0.184 0.207-0.321 0.452-0.402 0.717s-0.103 0.545-0.065 0.819c0.348 2.664 1.565 5.138 3.462 7.040 1.902 1.897 4.376 3.114 7.040 3.462 0.083 0.006 0.167 0.006 0.25 0 0.472 0.001 0.928-0.172 1.28-0.486 0.202-0.18 0.363-0.401 0.473-0.648s0.167-0.515 0.167-0.785v-1.92c-0.003-0.442-0.159-0.87-0.442-1.21s-0.673-0.573-1.107-0.659zM20.415 20.48c-0 0.089-0.019 0.178-0.055 0.259s-0.089 0.155-0.156 0.214c-0.070 0.064-0.154 0.111-0.244 0.139s-0.187 0.035-0.28 0.021c-2.388-0.312-4.608-1.4-6.317-3.098-1.71-1.71-2.808-3.938-3.123-6.336-0.014-0.094-0.007-0.19 0.021-0.28s0.075-0.174 0.139-0.244c0.061-0.067 0.135-0.121 0.217-0.157s0.172-0.055 0.263-0.054h1.92c0.148-0.004 0.293 0.044 0.409 0.135s0.198 0.22 0.231 0.364c0 0.173 0.058 0.352 0.096 0.525 0.074 0.335 0.172 0.665 0.294 0.986l-0.896 0.422c-0.154 0.071-0.274 0.2-0.333 0.358-0.064 0.156-0.064 0.331 0 0.486 0.921 1.973 2.507 3.559 4.48 4.48 0.156 0.064 0.331 0.064 0.486 0 0.159-0.059 0.288-0.179 0.358-0.333l0.403-0.896c0.33 0.12 0.668 0.219 1.011 0.294 0.166 0.038 0.346 0.070 0.518 0.096 0.144 0.032 0.273 0.114 0.364 0.231s0.139 0.261 0.135 0.409l0.058 1.978zM16.639 9.6c-0.147 0-0.301 0-0.448 0-0.17 0.014-0.327 0.096-0.437 0.226s-0.163 0.299-0.149 0.468c0.014 0.17 0.096 0.327 0.226 0.437s0.299 0.163 0.468 0.149h0.339c1.018 0 1.995 0.405 2.715 1.125s1.125 1.697 1.125 2.715c0 0.115 0 0.224 0 0.339-0.014 0.169 0.039 0.336 0.148 0.466s0.265 0.211 0.434 0.225h0.051c0.16 0.001 0.315-0.059 0.433-0.167s0.192-0.256 0.207-0.416c0-0.147 0-0.301 0-0.448 0-1.357-0.539-2.658-1.497-3.618s-2.259-1.5-3.616-1.502zM17.919 14.72c0 0.17 0.067 0.333 0.187 0.453s0.283 0.187 0.453 0.187 0.333-0.067 0.453-0.187c0.12-0.12 0.187-0.283 0.187-0.453 0-0.679-0.27-1.33-0.75-1.81s-1.131-0.75-1.81-0.75c-0.17 0-0.332 0.067-0.453 0.187s-0.187 0.283-0.187 0.453 0.067 0.333 0.187 0.453c0.12 0.12 0.283 0.187 0.453 0.187 0.34 0 0.665 0.135 0.905 0.375s0.375 0.566 0.375 0.905z"></path>
</symbol>

<symbol id="poisk" viewBox="0 0 32 32">
<path fill="none" stroke="#ffbc57" style="stroke: var(--color1, #ffbc57)" stroke-linejoin="miter" stroke-linecap="butt" stroke-miterlimit="4" stroke-width="1.28" d="M31.36 16c0 8.483-6.877 15.36-15.36 15.36s-15.36-6.877-15.36-15.36c0-8.483 6.877-15.36 15.36-15.36s15.36 6.877 15.36 15.36z"></path>
<path fill="#535353" style="fill: var(--color2, #535353)" d="M23.473 22.439l-2.729-2.709c1.059-1.322 1.572-3 1.433-4.688s-0.919-3.26-2.18-4.391c-1.261-1.131-2.907-1.735-4.599-1.689s-3.303 0.74-4.5 1.938c-1.197 1.198-1.89 2.81-1.936 4.504s0.558 3.341 1.688 4.603 2.7 2.042 4.387 2.181c1.687 0.139 3.364-0.374 4.685-1.435l2.707 2.709c0.068 0.069 0.15 0.124 0.239 0.161s0.186 0.057 0.283 0.057c0.097 0 0.193-0.019 0.283-0.057s0.171-0.092 0.239-0.161c0.133-0.137 0.207-0.321 0.207-0.512s-0.074-0.374-0.207-0.512zM15.595 20.753c-1.018 0-2.014-0.302-2.861-0.868s-1.507-1.371-1.896-2.313c-0.39-0.942-0.492-1.978-0.293-2.977s0.689-1.918 1.409-2.638c0.72-0.721 1.638-1.211 2.636-1.41s2.034-0.097 2.975 0.293c0.941 0.39 1.745 1.050 2.311 1.898s0.868 1.844 0.868 2.863c0 1.367-0.542 2.677-1.508 3.644s-2.275 1.509-3.641 1.509z"></path>
</symbol>

<symbol id="close" viewBox="0 0 32 32">
<path fill="#535353" style="fill: var(--color1, #535353)" d="M9.091 24.485l15.085-15.085c0.566-0.566 0.566-1.32 0-1.886s-1.32-0.566-1.886 0l-15.085 15.085c-0.566 0.566-0.566 1.32 0 1.886s1.32 0.566 1.886 0z"></path>
<path fill="#535353" style="fill: var(--color1, #535353)" d="M7.205 9.4l15.085 15.085c0.566 0.566 1.32 0.566 1.886 0s0.566-1.32 0-1.886l-15.085-15.085c-0.566-0.566-1.32-0.566-1.886 0s-0.566 1.32 0 1.886z"></path>
</symbol>

<symbol id="arrow-down" viewBox="0 0 32 32">
<path fill="#ffbc57" style="fill: var(--color1, #ffbc57)" d="M15.053 20.947c0.127 0.121 0.276 0.217 0.44 0.28 0.325 0.133 0.689 0.133 1.013 0 0.164-0.063 0.313-0.159 0.44-0.28l4-4c0.251-0.251 0.392-0.592 0.392-0.947s-0.141-0.696-0.392-0.947c-0.251-0.251-0.592-0.392-0.947-0.392s-0.696 0.141-0.947 0.392l-1.72 1.733v-4.787c0-0.354-0.14-0.693-0.39-0.943s-0.589-0.39-0.943-0.39-0.693 0.14-0.943 0.39c-0.25 0.25-0.39 0.589-0.39 0.943v4.787l-1.72-1.733c-0.124-0.125-0.271-0.224-0.434-0.292s-0.337-0.103-0.513-0.103-0.35 0.035-0.513 0.103c-0.162 0.068-0.31 0.167-0.434 0.292-0.125 0.124-0.224 0.271-0.292 0.434s-0.103 0.337-0.103 0.513 0.035 0.35 0.103 0.513c0.068 0.162 0.167 0.31 0.292 0.434l4 4zM16 29.333c2.637 0 5.215-0.782 7.408-2.247s3.902-3.547 4.911-5.984 1.273-5.117 0.759-7.704c-0.514-2.586-1.784-4.962-3.649-6.827s-4.24-3.135-6.827-3.649c-2.586-0.514-5.267-0.25-7.704 0.759s-4.519 2.718-5.984 4.911c-1.465 2.193-2.247 4.771-2.247 7.408 0 3.536 1.405 6.928 3.905 9.428 1.238 1.238 2.708 2.22 4.326 2.89s3.352 1.015 5.102 1.015zM16 5.333c2.11 0 4.172 0.626 5.926 1.798s3.121 2.838 3.929 4.787c0.807 1.949 1.019 4.094 0.607 6.163s-1.427 3.97-2.919 5.462c-1.492 1.492-3.392 2.508-5.462 2.919s-4.214 0.2-6.163-0.607c-1.949-0.807-3.615-2.175-4.787-3.929s-1.798-3.816-1.798-5.926c0-2.829 1.124-5.542 3.124-7.542s4.713-3.124 7.542-3.124z"></path>
</symbol>

<symbol id="close-1" viewBox="0 0 32 32">
<path fill="none" stroke="#ffbc57" style="stroke: var(--color1, #ffbc57)" stroke-linejoin="miter" stroke-linecap="butt" stroke-miterlimit="4" stroke-width="1.28" d="M31.36 16c0 8.483-6.877 15.36-15.36 15.36s-15.36-6.877-15.36-15.36c0-8.483 6.877-15.36 15.36-15.36s15.36 6.877 15.36 15.36z"></path>
<path fill="#535353" style="fill: var(--color4, #535353)" d="M10.868 23.33l12.461-12.461c0.467-0.467 0.467-1.090 0-1.558s-1.090-0.467-1.558 0l-12.461 12.461c-0.467 0.467-0.467 1.090 0 1.558s1.090 0.467 1.558 0z"></path>
<path fill="#535353" style="fill: var(--color4, #535353)" d="M9.311 10.868l12.461 12.461c0.467 0.467 1.090 0.467 1.558 0s0.467-1.090 0-1.558l-12.461-12.461c-0.467-0.467-1.090-0.467-1.558 0s-0.467 1.090 0 1.558z"></path>
</symbol>

</defs></svg>